<?xml version="1.0" encoding="utf-8"?>
<!-- Generator: Adobe Illustrator 19.2.1, SVG Export Plug-In . SVG Version: 6.00 Build 0)  -->
<svg version="1.1" xmlns="http://www.w3.org/2000/svg" xmlns:xlink="http://www.w3.org/1999/xlink" x="0px" y="0px"
	 viewBox="0 0 70 70" style="enable-background:new 0 0 70 70;" xml:space="preserve">
<style type="text/css">
	.st0{display:none;}
	.st1{display:inline;fill:#106EB0;}
	.st2{display:inline;fill:#106FB1;}
	.st3{display:inline;}
	.st4{fill:#1170B2;}
	.st5{fill:#1171B2;}
	.st6{fill:#0E6DAF;}
	.st7{fill:#1173B2;}
	.st8{display:none;fill:#1173B2;}
	.st9{display:inline;fill:#1173B2;}
	.st10{fill:#010101;stroke:#FFFFFF;stroke-width:0.75;stroke-miterlimit:10;}
	.st11{fill:#010101;stroke:#FFFFFF;stroke-width:0.5;stroke-miterlimit:10;}
	.st12{fill:#1173B2;stroke:#FFFFFF;}
	.st13{fill:#1C4882;}
</style>
<g id="Layer_1">
	<g id="Layer_1_1_" class="st0">
		<path class="st1" d="M67.1,42l-11.5-8.5c-0.6-0.5-0.9-1.3-0.7-2l3.6-13.2c0.2-0.6,0-1.3-0.3-1.7c-0.4-0.5-1-0.7-1.6-0.6L42,17.5
			c-0.8,0.1-1.5-0.3-1.8-1L33.6,2c-0.3-0.6-0.9-1-1.7-1c-0.7,0-1.4,0.5-1.8,1.1l-8.7,16c-0.5,0.8-1.4,1.3-2.3,1.1L7.2,16
			c-0.7-0.2-1.4,0-1.9,0.6c-0.5,0.5-0.7,1.3-0.5,2l3.1,11.6c0.1,0.4,0.4,0.6,0.8,0.5c0.4-0.1,0.6-0.4,0.6-0.8L9,22.3
			c0-0.3,0.1-0.6,0.4-0.8c0.3-0.2,0.6-0.3,0.9-0.2L20.9,24c0.9,0.2,1.8-0.2,2.3-1.1l7.3-13.4C30.7,9.2,31,9,31.4,9s0.7,0.2,0.8,0.5
			l5.7,12.1c0.3,0.7,1,1.1,1.8,1l12.1-1.2c0.3,0,0.6,0.1,0.8,0.3c0.2,0.2,0.2,0.6,0.2,0.9l-3,11c-0.2,0.8,0,1.6,0.7,2l9.7,7.2
			c0.3,0.2,0.4,0.5,0.4,0.9s-0.3,0.7-0.6,0.8l-11,5.4c-0.9,0.4-1.4,1.5-1.1,2.4L50.5,63c0.1,0.3,0,0.6-0.2,0.9s-0.4,0.4-0.7,0.5
			l-8.1,0.9c-0.3,0-0.6,0.3-0.6,0.6c0,0.3,0.2,0.6,0.5,0.7l12,2.2c0.7,0.1,1.4-0.1,1.9-0.7c0.5-0.5,0.7-1.3,0.5-2l-3.3-11.8
			c-0.3-1,0.2-2,1.1-2.5l13.1-6.5c0.6-0.3,1.1-0.9,1.2-1.6C68,43.1,67.7,42.4,67.1,42z M47.9,48c1.4-1.6,2.1-4.1,1.7-6.4
			c-0.3-2.1-1.4-4-3.2-5.4c-0.3-1.9-1.4-3.8-3-5.2c-1-0.8-2-1.4-3-1.6c-0.7-1.2-1.7-2.3-2.9-2.9c-1-0.6-2.1-0.9-3.2-0.9
			c-1.1-1.5-2.8-2.7-4.5-3.2c-1.8-0.5-3.5-0.3-4.8,0.7c-1.1,0.9-2.5,2.4-3.7,3.8c-0.4,0.4-0.8,0.9-1.1,1.2c-1.9,0.5-5.1,1.6-6,1.9
			l-1.5,1.2c-1.3,2.4-3.7,7.8-4,8.6l-0.3,0.7l0.1,0.8c0.4,2.8,0.6,4.8,0.7,6v0.4c-0.4,0.6-1.5,2.1-4.4,5.6l1,0.8L8,56.3
			c0.9-1,1.7-2,2-2.4c1,0.5,4.4,1.9,6.2,2.1c-0.7-1.2-2.4-6.2-2.7-7.4l0,0l0-0.6c0-0.2-0.1-0.6-0.1-1.1c-0.1-1.2-0.3-3.2-0.7-5.9
			c0.6-1.4,2.3-5.1,3.5-7.2c1.4-0.5,5.1-1.7,6.5-2l5.2,2.2c-1.2,1.7-0.2,2.7,0.3,2.9c0.5,0.3,2.3,0.7,3.2,1c0.6-0.8,0.9-1.3,1.3-1.9
			l1.5,0.6c-0.7,2.1-1.7,3.4-3.2,4.1c-1.9,0.9-5.3,0.9-8.6-1.9l0.1-1.9c0-0.3-0.2-0.6-0.5-0.6s-0.6,0.2-0.6,0.6l-0.3,3
			c0,0.1,1.5,1.3,2.2,1.7c0.5,1.5,1.7,5,2.2,7.6c1.4-2.8,3.1-4.7,4.1-5.2c0.2,0.8,0.7,1.7,1.5,2.4s2,1.2,3.7,1.4l0,0
			c0.5,0.9,1.2,1.8,2,2.5c0.6,0.5,1.3,1,2,1.3C36,54.4,34,56,33.3,56.1c-1.1,0.2-2.1,0.3-3,0.4c-0.8,0.1-1.5,0.2-2.4,0.3
			c-3,0.4-10,8.6-10.1,8.7l0,0l3.2,2.8c3.1-3.2,6.9-6.9,7.5-7.2c0.8-0.1,1.4-0.2,2.2-0.3c1-0.1,2.1-0.2,3.3-0.4
			C35.6,60.1,38.7,58.5,47.9,48z M24.3,29.9c0.1-0.1,0.1-0.1,0.2-0.2c1-1.2,2.4-2.6,3.2-3.3c0.1-0.1,0.4-0.1,1,0
			c1.2,0.4,2.5,1.5,2.8,2.5V29c-0.6,0.8-1.6,2.1-2.3,3C27.4,31.3,25.5,30.5,24.3,29.9z M30.8,32.7c0.6-0.8,1.5-2,2.1-2.7l0.3-0.1
			c0.7-0.2,1.6-0.1,2.3,0.3c0.6,0.3,1.3,1,1.6,2.2l0.1,0.3c-0.4,0.5-1,1.4-1.6,2.1C35.3,34.6,33.6,33.9,30.8,32.7z M34.7,45.2
			c-2.4-0.3-2.8-1.6-3-2.9c2.1-1,3.2-2.8,3.8-4.5c0.4-0.5,2.3-2.9,3.2-4.2l0.3-0.1c0.4-0.1,1.1,0.2,1.8,0.7l0,0
			c0.9,0.8,1.4,1.8,1.6,2.8C41.3,39.7,36.8,44.1,34.7,45.2z M37.1,46.7c2.2-1.6,5.1-4.5,6.7-7c1.1,0.9,1.6,1.9,1.7,2.7
			c0.2,1.3-0.3,2.4-0.7,2.9c-1.4,1.6-2.8,3.1-4,4.4C39.9,49.6,37.9,48.3,37.1,46.7z"/>
	</g>
	<g id="Layer_2" class="st0">
		<path class="st2" d="M47.1,4.3C27.5,5.7,34.9,19.4,34.9,19.4S49.4,23.8,47.1,4.3z M31.6,19.8c-0.9-2.1-2.2-6.6-0.1-10.9
			c-1.8-1.2-4.5-2.1-8.6-2.4C21.3,19.2,28.2,20.1,31.6,19.8z M56.5,26.2c-4.7-5.1-15.4-5.9-21.5-2.3c-6.1-3.6-16.8-2.8-21.5,2.3
			C0.4,40.3,16.6,76.2,35,63.1C53.4,76.2,69.6,40.3,56.5,26.2z M20.9,34.5c-2.8,4-2.8,8.9-4.6,7.6c-1.8-1.3-2.9-6.9-0.1-10.9
			s8.5-4.8,10.3-3.5C28.4,28.9,23.7,30.5,20.9,34.5z"/>
	</g>
	<g id="Layer_3" class="st0">
		<path class="st1" d="M49.9,3.4l-0.8,3c-0.3,1.1,1.7,4.2,4.6,7.4l-8,8l4.4,4.4l8-8c3.3,2.9,6.3,4.8,7.4,4.5l3-0.8L49.9,3.4z
			 M31.5,21l2.9,2.9L13,45.3c-0.5,0.5-0.7,1.2-0.6,1.9l1,4.8c0,0.2,0.1,0.4,0.2,0.6L11.2,55l1.6,1.6l-12,12L5.6,69l9.8-9.8l1.6,1.6
			l2.5-2.5c0.2,0.1,0.4,0.2,0.6,0.2l4.8,1c0.1,0,0.3,0,0.4,0c0.5,0,1.1-0.2,1.5-0.6l21.4-21.4l2.9,2.9l4.9-2.9L34.4,16.1L31.5,21z
			 M37.3,26.8l7.8,7.8L36,43.7H23.5L22,42.2l3.3-3.3l3.8,3.8l2.9-2.9L28.2,36l3.3-3.3l3.8,3.8l2.9-2.9l-3.8-3.8L37.3,26.8z"/>
	</g>
	<g id="Layer_4" class="st0">
		<path class="st2" d="M31.5,54.5c0.6-5.9,0.5-11.7-0.4-17.3c0.7-0.1,1.3-0.2,2-0.3c0-0.6-0.1-1.2-0.1-1.8c0-0.5,0-1,0-1.5
			c-0.9,0.1-1.7,0.2-2.6,0.4c-1.1-5-2.8-9.7-5.1-14.2c0.2,0,0.3,0,0.5,0c3.4,0.2,6.6,1.4,9.2,3.2c0.6-1.8,1.3-3.4,2.1-5
			c-3.2-2-7-3.3-11-3.5c-0.5,0-1,0-1.5,0c-12.4,0-22.7,9.7-23.5,22c-0.4,6.2,1.7,12.3,5.9,17s9.9,7.5,16.2,7.9c0.5,0,1,0,1.5,0
			c5.5,0,10.7-1.9,14.7-5.2c-1-1.4-1.9-3-2.7-4.7C35.2,52.6,33.4,53.7,31.5,54.5z M21.7,19.9c2.5,4.6,4.3,9.5,5.5,14.6
			c-1.7,0.3-3.4,0.7-5.1,1.1c-1.7-5.1-4.8-9.2-8.9-11.9C15.7,21.7,18.5,20.4,21.7,19.9z M6.7,40.4c-0.2-1.2-0.2-2.5-0.2-3.8
			c0.2-4,1.8-7.6,4.2-10.5c3.7,2.2,6.5,5.8,8.1,10.3C14.1,37.7,10,39.1,6.7,40.4z M17.3,54.3c-2.4-1-4.5-2.6-6.2-4.6
			c-1.6-1.8-2.8-3.8-3.6-6c3.2-1.3,7.4-2.8,12.2-4.1C20.6,44.6,19.8,49.8,17.3,54.3z M28.1,55.5c-1.4,0.3-2.9,0.4-4.5,0.3
			c-1-0.1-2.1-0.2-3.1-0.5c2.7-5.1,3.5-10.9,2.4-16.6c1.6-0.4,3.2-0.7,4.9-1C28.8,43.5,28.9,49.5,28.1,55.5z M54.3,27.5H51v1.1h-2.1
			V32H51v1.4h-2.1v3.3H51v1.4h-2.1v3.3H51v1.1h3.3v-1.1h2.1v-3.3h-2.1v-1.4h2.1v-3.3h-2.1V32h2.1v-3.3h-2.1V27.5z M52.6,8.9
			c-7.4,0-16.3,11.7-16.3,26.1c0,14.5,8.9,26.1,16.3,26.1S68.9,49.4,68.9,35C68.9,20.6,60,8.9,52.6,8.9z M52.6,14.3
			c1.6,0,3.8,1.7,5.8,4.5c-3.9,0.5-7.8,0.5-11.7,0C48.8,15.9,51.1,14.3,52.6,14.3z M52.6,55.8c-1.6,0-3.8-1.7-5.8-4.5
			c3.9-0.5,7.8-0.5,11.7,0C56.4,54.2,54.2,55.8,52.6,55.8z M44.9,48.2c-1.8-3.5-3.2-8.1-3.2-13.2s1.4-9.7,3.2-13.2
			c2.6,0.4,5.2,0.6,7.7,0.6c2.6,0,5.2-0.2,7.7-0.6c1.8,3.5,3.2,8.1,3.2,13.2s-1.4,9.6-3.2,13.2C55.2,47.4,50,47.4,44.9,48.2z"/>
	</g>
	<g id="Layer_5" class="st0">
		<g class="st3">
			<g>
				<path class="st4" d="M25.5,68.4v-8.5h6.2v8.5h6.4V57c0-1.5-0.6-2.9-1.6-3.9s-2.4-1.6-3.9-1.6H13.4c-1.5,0-2.9,0.6-3.9,1.6
					S7.9,55.5,7.9,57v11.4H17H25.5z M14.4,59.8h6.2v2.8h-6.2C14.4,62.6,14.4,59.8,14.4,59.8z"/>
				<path class="st4" d="M49.5,33v11.9h-6.2v-6.3h-8.7V45h-7.1v-6.4l4.2-9.1h-16l4.2,9.1V45H17v4.3h15.5c2.1,0,4,0.8,5.4,2.3
					c1.5,1.5,2.3,3.4,2.3,5.4v11.4h24.2V45h-4V33H49.5z M51.8,55.5c0.6,0,1,0.5,1,1c0,0.6-0.5,1-1,1c-0.6,0-1-0.5-1-1
					C50.8,55.9,51.2,55.5,51.8,55.5z M44,56.5c0-2.8,1.5-5.3,3.7-6.6l2.7,4.5c-0.7,0.5-1.2,1.3-1.2,2.2v0.2H44V56.5z M51.8,64.3
					c-1.5,0-2.8-0.4-4-1.1l2.7-4.5c0.4,0.2,0.8,0.3,1.3,0.3s0.9-0.1,1.3-0.3l2.7,4.5C54.6,63.9,53.3,64.3,51.8,64.3z M59.6,56.6
					h-5.2v-0.2c0-0.9-0.5-1.7-1.2-2.2l2.7-4.5c2.2,1.4,3.7,3.8,3.7,6.6V56.6z"/>
			</g>
			<path class="st4" d="M34.1,2.6C31.7,3.5,30.3,5.7,30,9c-1.8-2.4-4.5-1.9-6.1,0.1c-1.5,2-0.9,4.1,1,6.5c-1.8-1.2-4.3,0.5-2.7,3
				c-2.9-1.1-6,2.5-3.3,5.7c-1.6,0.4-1.9,1.5-2,2.4h13.7l0,0c0.2-0.8-0.1-1.6-0.7-2.3c2.6-0.1,4.1-3.4,1.6-5
				c1.2,0.8,6.6,2.2,5.9-3.2c2,3.2,4.3,5.8,8.1,4.9c3.3-0.8,3.3-6.1,0.3-7.4c2.3-0.9,4.1-3.4,2.3-6c-1.6-2.4-4.3-1.6-6.5-0.2
				C41.1,4,37.5,1.3,34.1,2.6z"/>
		</g>
	</g>
	<g id="Layer_6" class="st0">
		<g class="st3">
			<path class="st5" d="M40.2,19.7c-0.2-2.5,1.4-3.8,2.3-4.5c0.6-0.5,1.3-0.8,2.1-1c0.1,0.7,0.3,1.5,0.6,2.2
				c1.7,3.6,6.1,5.2,9.7,3.4c3.6-1.7,5.2-6.1,3.4-9.7c-1.7-3.6-6.1-5.2-9.7-3.4c-2,0.9-3.3,2.7-3.9,4.6c-2.3-1-5-0.8-6.4,1.3
				C36.1,15.8,40.2,19.7,40.2,19.7z"/>
			<path class="st5" d="M39.8,28.3c-0.1,0.3-0.1,0.6-0.2,1c5.4-0.5,7.1-2.8,7.4-3.2l0.4-2.1C43.7,23.1,40.4,25.3,39.8,28.3z"/>
			<path class="st5" d="M46.7,27.4c-1.1,1-3.2,2.2-7.3,2.6c-0.6,2.7-1.6,5.7-2.2,8c-0.7,2.8,1.3,3.8,1.3,3.8l5.6,1L46.7,27.4z"/>
			<path class="st5" d="M57.8,24.8c0.3,2.1,0,4.7-1.8,7.5l3.9,1.5c-1-4.5-1.8-8.2-1.8-8.3C58,25.3,57.9,25,57.8,24.8z"/>
			<path class="st5" d="M63.8,64l-3.3-14.2h2.9c0,0-0.9-4.1-2-8.8c-0.3,0.1-0.5,0.1-0.8,0.1c-0.4,0-0.8-0.1-1.2-0.2l-8.7-3.4l0,0
				c-1.4,0.9-3,1.9-4.9,2.8c-0.9,5.1-1.6,9.6-1.6,9.6h3l-3.5,13.8c-0.7,1.7,0.1,3.7,1.9,4.4c1.7,0.7,3.7-0.1,4.4-1.9l3.9-14.7
				l3.6,14.9c0.6,1.8,2.6,2.7,4.3,2C63.5,67.7,64.4,65.8,63.8,64z"/>
			<path class="st5" d="M55.2,29.5c1.1-2.3,1.3-4.9-0.3-7.6c-0.5-0.2-1.1-0.3-1.7-0.3c-2.5,0-4.6,1.9-4.9,4.4c0,0.1-1,6-2.1,11.9
				c0,0,1.3-0.7,2.9-1.8c-0.4-0.7-0.6-1.5-0.4-2.3l1-7.1c0.1-0.4,0.4-0.7,0.8-0.6c-0.2,1.5-1.1,7.8-1.1,7.8
				c-0.2,1.2,0.4,2.4,1.6,2.9l0,0l0,0l8.7,3.4c1.3,0.5,2.9-0.1,3.4-1.5c0.5-1.3-0.1-2.9-1.5-3.4l-6.9-2.7C54.7,32.6,55,31,55.2,29.5
				z"/>
		</g>
		<g class="st3">
			<circle class="st5" cx="18.8" cy="9.4" r="7.3"/>
			<path class="st5" d="M12.8,22.9v-2.2c-3.7-0.3-6.7,2.5-6.7,5.6c0,0.3,0,0.6,0,1C11.4,25.9,12.7,23.4,12.8,22.9z"/>
			<path class="st5" d="M24.7,28.1c0,0.5,0,1.1,0,1.6v9.5l1.2,2.2l0,0c0.7,1.3,2.2,1.8,3.5,1.1s1.8-2.2,1.1-3.5l0,0l0,0L24.7,28.1z"
				/>
			<path class="st5" d="M12.8,24.3C12,25.4,10,27.1,6,28.1c-0.2,2.7-0.6,5.9-0.8,8.3c-0.1,1.6,0.5,2.6,1.1,3
				c0.1-0.2,0.1-0.4,0.3-0.7l0,0l6.3-11.8L12.8,24.3z"/>
			<path class="st5" d="M11.8,41.5c0.4-0.6,0.1-0.1,9.1-17l0,0c0.1-0.2,0.2-0.4,0.2-0.7c0.1,0,0.1,0,0.2,0.1c0.4,0.2,0.5,0.6,0.3,1
				l-3.4,6.3c-0.3,0.5-0.5,1-0.8,1.5c3.3-2.3,7.4-6.3,6.4-11.1c-0.6-2-2.5-3.5-4.7-3.5c-2.5,0-4.6,1.9-4.9,4.4c0,0,0,0.8,0,2l1-1.9
				c0.2-0.4,0.6-0.5,1-0.3L15.7,23l0,0L7.2,39l0,0c-0.7,1.3-0.2,2.8,1.1,3.5S11.1,42.8,11.8,41.5z"/>
			<path class="st5" d="M34.2,62.9L24,43.6c0-1.6,0-9.1,0-14.5c-1.5,2.3-4.1,4.7-8.4,7c-0.6,1.2-1.1,2.1-1.5,2.8
				c0.2,1.5,0.7,2.9,1.9,3.9c-1.1,3.6-6.6,21.5-6.6,21.5l0,0c-0.5,1.8,0.5,3.6,2.3,4.2c1.8,0.5,3.6-0.4,4.2-2.2l4.3-13.9l-3-5.6
				c-0.2-0.4-0.1-0.8,0.3-1l0,0l10.9,20.3c0.9,1.6,2.9,2.2,4.5,1.3C34.4,66.6,35.1,64.6,34.2,62.9z"/>
		</g>
	</g>
	<g id="Layer_7">
		<path class="st6" d="M64.6,54.1L64.6,54.1c-0.5-1.7-1-3.1-1.5-3.6c-1.4-1.4-5.7-2.7-10.1-4c-4.8-1.4-9.7-2.9-10.5-4.4
			c-0.6-1.1-0.7-3.2,0.2-5.3c0.1,0,0.2,0,0.4-0.1c0.1,0,0.2,0,0.4-0.1c0.1-0.1,0.4-0.1,0.7-0.6l0,0c0-0.1,0.1-0.1,0.1-0.1l0,0
			c0.1-0.1,0.2-0.3,0.2-0.4c0.1-0.2,0.3-0.4,0.4-0.6c0.3-0.5,1.6-2.9,2.1-5.9c1.8-1.7,2.6-3.8,2.6-5.8c0-0.5-0.1-1-0.1-1.5
			c0-0.2-0.1-0.4-0.2-0.6l0.1-0.7c0.1-0.5,0.1-1,0.1-1.6c0-0.8-0.1-1.6-0.2-2.4c0-0.1,0-0.3,0-0.4c0-1.5-0.4-3-1-4.4
			c-0.6-1.2-1.3-2.3-2.3-3c-0.5-1.7-1.9-3-3.6-3.8c-1.9-1-4.5-1.5-7.4-1.5c-7.2,0-13.9,5.1-14.1,13c-0.1,0.7-0.2,1.6-0.2,2.4
			s0,1.6,0.2,2.3c-0.1,0.3-0.1,0.5-0.2,0.8c-0.1,0.5-0.1,1-0.1,1.5c0,2,0.8,4.1,2.6,5.8c0.5,3.1,1.8,5.5,2.1,5.9
			c0.1,0.2,0.2,0.4,0.4,0.6c0.1,0.2,0.2,0.3,0.2,0.4l0,0c0,0,0,0.1,0.1,0.1l0,0c0.3,0.5,0.6,0.5,0.7,0.6c0.3,0.1,0.5,0.2,0.7,0.2
			c0.9,2.1,0.8,4.2,0.2,5.3c-0.8,1.6-5.7,3-10.5,4.4c-4.3,1.3-8.7,2.6-10.1,4c-0.5,0.5-1.1,1.9-1.5,3.6l0,0
			C4.8,56.6,3.8,61.4,3,66.6h35.8l0,0h28.4C66.3,61.3,65.3,56.5,64.6,54.1z M25.4,28.7v-0.1L25,28.3L24.7,28
			c-1.3-1.3-1.9-2.8-1.9-4.2c0-0.3,0-0.6,0.1-0.9c0.1-0.7,0.5-1.2,0.6-1.2h0.1c0.1,0,0.3,0.1,0.5,0.2c0,0.2,0.3,4.4,0.3,4.4l0.7,1
			c0,0,0.1-0.2,0.2-0.6c0.1-1.4,11.3-5.3,16.3-12.3c2.7,0.6,3.3,3.1,3.3,5.1c0,1-0.2,1.9-0.2,2.3c0,0.2-0.1,0.4-0.1,0.6
			c0.1,1.3,0.2,2.9,0.3,4.1c0.2,0.5,0.3,0.7,0.3,0.7l0.7-1c0,0,0.1-4.1,0.1-4.3c0.2-0.1,0.3-0.2,0.5-0.2h0.1c0.2,0,0.5,0.5,0.7,1.2
			c0.1,0.3,0.1,0.6,0.1,0.9c0,1.4-0.6,2.8-1.9,4.2L45,28.3l-0.1,0.1l-0.3,0.4c-0.4,3.2-1.3,5.6-3.2,7.5c-3.8,3.8-4.1,3.6-6.4,3.7
			l0,0l0,0c-2.3,0-2.6,0.1-6.4-3.7C26.7,34.4,25.8,31.9,25.4,28.7z M35,50.3c-3.1,0-7.1-0.5-10.6-3.4c0,0,4-4,4.1-4.2
			c0.4-0.7,0.5-2.1,0.4-3.4c0.9,0.9,1.7,1.4,2.4,1.9c1.3,0.7,2.5,0.7,3.5,0.7h0.8l0,0c0.9,0,1.9-0.1,2.9-0.7c0.8-0.4,1.6-1,2.5-1.9
			c-0.2,1.3,0,2.8,0.4,3.5c0.1,0.2,0.3,0.4,0.5,0.6c1,1.6,3.6,3.6,3.6,3.6C43,49.6,38.1,50.3,35,50.3z"/>
	</g>
	<g id="Layer_9" class="st0">
		<g class="st3">
			<path class="st7" d="M21.9,51.8c-0.9,0.1-1.7-0.6-1.8-1.5l-1.4-12.8l-4.5,1.6l2.5,30.1h7.2L22,51.6L21.9,51.8z M27.1,34.1
				l-2.8,1.8L26,49.4c0.1,0.9-0.6,1.7-1.5,1.8l0.1,0.1l1.9,17.9h19.3l1.9-17.9l0.1-0.1c-0.9-0.1-1.6-0.9-1.5-1.8L48,35.9l-2.8-1.8
				l-8.5,2.6 M53.7,37.5l-1.4,12.8c-0.1,0.9-0.9,1.6-1.8,1.5l-0.1-0.1l-1.9,17.6h7.2l2.5-30.1L53.7,37.5z"/>
			<g>
				<g>
					<path class="st7" d="M47.6,10l-0.1,0.2c-1.2,6.7-9.8,6.5-9.8,6.5l0.2-1.4c-1.9,3.4-7.8,4-7.8,4s0.4-1.6,0.3-3.1
						c-1.7,1.8-4.3,3.3-7.4,3.7h-0.1c1.2,6.2,6.7,10.8,13.2,10.8c7.5,0,13.5-6,13.5-13.5C49.7,14.6,48.9,12.1,47.6,10z M36.2,28.9
						L36.2,28.9c-4.9,0-9.3-3.1-11-7.6c0,0,15,1,22.3-6.8c0.2,0.9,0.3,1.9,0.3,2.8C47.9,23.7,42.6,28.9,36.2,28.9z"/>
				</g>
				<path class="st7" d="M21.8,17.2c0-8,6.5-14.4,14.5-14.4c3.9,0,7.5,1.6,10.1,4.1c0,0,0.2,5.7-6.4,7.3c0,0,0.5-3.2-0.8-4.6
					c0,0-2.3,6.2-7,7.3c0,0,0.3-2.7-1.2-4c0,0-4.1,5-9.1,5.2L21.8,17.2z"/>
			</g>
		</g>
	</g>
	<g id="Layer_10" class="st0">
		<g class="st3">
			<circle class="st8" cx="38" cy="36.6" r="44.8"/>
			<g>
				<circle class="st7" cx="29.4" cy="28.8" r="11.5"/>
				<path class="st7" d="M45.9,58.6c0-9.1-7.4-15.5-16.4-15.5c-9.1,0-16.4,6.4-16.4,15.5v1.7H46v-1.7H45.9z"/>
				<polygon class="st7" points="60.6,18.1 60.6,15.3 54.6,15.3 54.6,10.5 54.5,10.5 43.8,10.5 36.7,13.5 36.7,16.3 50.8,16.3 
					50.8,60.3 54.5,60.3 54.5,56 60.6,56 60.6,53.2 54.5,53.2 54.5,42.7 60.6,42.7 60.6,39.9 54.5,39.9 54.5,29.4 60.6,29.4 
					60.6,26.7 54.5,26.7 54.5,18.1 				"/>
			</g>
		</g>
	</g>
	<g id="Layer_11" class="st0">
		<g class="st3">
			<g>
				<path class="st7" d="M54.1,11.1c1.2-0.8,2.3-1.5,3.5-2.3c0,2.6,0,5.2,0,7.7c-0.2,0-0.4-0.1-0.5-0.3c-0.1-0.3-0.3-0.6-0.3-1
					c-0.2-0.7-0.3-1.5-0.4-2.2c0-0.2-0.1-0.5-0.3-0.7c-0.1-0.2-0.3-0.3-0.5-0.2c-0.3,0.1-0.7,0.3-1,0.4l-0.1,0.1c0.3,2-1,4.3-3.6,5
					c-3.3,0.9-5.7-1.3-6.4-3.4c-0.1-0.5-0.2-1-0.1-1.4c0,0,0-0.1-0.1-0.2c-0.4-0.2-0.7-0.3-1.1-0.5c-0.3-0.1-0.5,0-0.6,0.3
					c-0.1,0.4-0.3,0.8-0.3,1.3c-0.1,0.6-0.2,1.2-0.3,1.8c-0.1,0.3-0.2,0.5-0.3,0.8c-0.1,0.2-0.2,0.3-0.4,0.2c0-2.6,0-5.1,0-7.8
					c1.2,0.8,2.4,1.6,3.7,2.4c1-1.7,2.5-2.9,4.5-2.9C51.6,8.2,53,9.3,54.1,11.1z"/>
				<g>
					<path class="st7" d="M43,28.4l1.3-8.9c-0.1,0-0.1,0-0.2,0.1c-2,0.9-3,3.2-3,3.2l-5.2,13.7c0,0-0.5,1-0.4,1.8
						c0.2,0.9,1.3,2,2.8,1.2c0.7-0.3,1-1.4,1-1.4L43,28.4z"/>
					<path class="st7" d="M54.1,29.9l-1.5-11c-1.4-0.2-2.8-0.1-3.1,0c-0.4,0-1.7-0.2-3.2,0l-1.5,11c0,0-0.3,2.2-0.6,3.3
						c-1.3,6.5-5,16.1-5,16.1h4.7l2,13c0,0-1,0.2-1.5,0.7c-0.4,0.4-0.3,1.4-0.3,1.4h3.8v-15h1.6h1.6v15.1h3.8c0,0,0.1-1-0.3-1.4
						C54,62.7,53,62.4,53,62.4l2-13h4.7c0,0-3.7-9.7-5-16.1C54.5,32.1,54.1,29.9,54.1,29.9z"/>
					<path class="st7" d="M63,36.4l-5.2-13.7c0,0-1.1-2.3-3-3.2c-0.1,0-0.1-0.1-0.2-0.1l1.2,8.8l3.7,9.7c0,0,0.4,1.1,1,1.4
						c1.5,0.8,2.6-0.2,2.8-1.2C63.5,37.4,63,36.4,63,36.4z"/>
				</g>
			</g>
			<g>
				<ellipse class="st7" cx="21.1" cy="8.3" rx="5.2" ry="5.2"/>
				<path class="st7" d="M14.8,24.3l1.3-8.9c-0.1,0-0.1,0-0.2,0.1c-2,0.9-3,3.2-3,3.2L7.7,32.3c0,0-0.5,1-0.4,1.8
					c0.2,0.9,1.3,2,2.8,1.2c0.7-0.3,1-1.4,1-1.4L14.8,24.3z"/>
				<path class="st7" d="M34.7,32.3l-5.2-13.7c0,0-1.1-2.3-3-3.2c-0.1,0-0.1-0.1-0.2-0.1l1.2,8.8l3.7,9.7c0,0,0.4,1.1,1,1.4
					C33.7,36,34.8,35,35,34C35.2,33.3,34.7,32.3,34.7,32.3z"/>
				<path class="st7" d="M28.3,63.2c-0.4-0.4-1.3-0.4-1.3-0.4l0.3-17.5l0.2-12c-0.4-1.4-0.7-2.8-1-4.1c-0.2-1.1-0.6-3.3-0.6-3.3
					l-0.1-0.5l0,0L24.3,15c-0.1,0-0.2,0-0.2,0h-2.8h-0.1h-0.3h-2.5c-0.1,0-0.2,0-0.3,0l-1.5,11c0,0-0.3,2.2-0.6,3.3
					c-0.3,1.5-0.7,3.1-1.2,4.8L15,45.4l0.3,17.5c0,0-0.9,0-1.3,0.4c-0.5,0.5-0.4,1.4-0.4,1.4h6.1V45.4V41h1.2h0.4h1.2v4.4v19.3h6.1
					C28.6,64.6,28.7,63.7,28.3,63.2z"/>
			</g>
		</g>
	</g>
	<g id="Layer_12" class="st0">
		<path class="st9" d="M25.1,21.4c-0.7,0.4-1.4,1.4-0.8,3.4c0.6,1.9,2.1,3.5,3.3,3.7c0.9,4.3,3.6,8.2,8.4,8.2s7.5-3.9,8.4-8.2
			c1.1-0.2,2.7-1.6,3.3-3.7c0.7-2.3-0.1-3.2-0.9-3.5c0.4-1.1,0.6-1.9,0.2-3.4c0.5-1,0.5-1.1,0.5-2.1c0.3-0.3,0.5-0.6,0-1
			c0-0.6,0-2.1-0.5-2.5c0.2-0.4,0.3-0.9,0.3-1.6c-0.1-1.3-0.8-2.9,0.4-3.5c-0.2-0.2-2.9,0.5-4.1,1.9c-0.1-1.7,1.5-3.2,3.1-3.2
			c-1.2-0.6-2.5-0.6-3.5-0.2c-0.3-1.5-1.7-2.3-3-1.7c-0.2-0.2-0.6-1-1.3-1.1c-3.3,0.8-3.5,3.3-3.5,3.8c0-0.3-1.7-3.1-5.6-2.6
			c1.6,1,1.9,2.9,1.9,2.9c-1.9-2.7-6.6-2.1-6.8,0c0,0.2,0,0.9,0.1,1.4c-0.6,0.2-1,0.5-1.4,1c1.5,0.1,1.8,1.3,1.5,2.1
			c-2.3,0-1.6,0.6-1,1.6c-0.3,0.5-0.3,1.8-0.3,2.4c-0.3,0.2-0.2,0.5,0,0.7c0,1.3,0,1.5,0.8,2.8C24.5,19.9,24.8,20.8,25.1,21.4
			L25.1,21.4z M28.3,36.9l-2.4,2.6L24.1,40c3.2,6.6,3.6,17.5-2.4,26.8h28.7c-6-9.3-5.6-20.2-2.4-26.8l-2-0.6l-2.4-2.6
			c-3.1,4.6-5.3,0.2-7,4.8h-1.5C33.6,37.1,31.4,41.5,28.3,36.9L28.3,36.9z M18.2,41.8l-2.1,0.6c-5.2,1.6-4.9,15.1-5.1,21
			c-0.1,1.9,1.6,3.5,3.5,3.5H18C21.5,57.8,20.4,47.9,18.2,41.8L18.2,41.8z M54.2,66.9h3.3c1.9,0,3.5-1.6,3.5-3.5
			c-0.2-5.8,0.1-19.4-5.1-21L54,41.8C51.8,48,50.7,57.8,54.2,66.9L54.2,66.9z M40.8,7.7c-0.1,0-0.3-0.1-0.4-0.1
			c-0.2-1-0.2-2.4,0.7-2.4c0.7,0.1,0.8,0.6,0.9,1.1C41.5,6.7,41.1,7.1,40.8,7.7L40.8,7.7z M26,8.2c0.9-0.1,1.8-0.1,2.6,0
			c-0.1,0-0.4-0.9-1.6-1.8C26.3,6.7,26,7.4,26,8.2L26,8.2z M38.1,4.2c-0.2,0.6-0.3,1.3-0.2,1.9c0.4-0.7,1-1.4,1.7-1.9
			C39.2,4.1,38.6,4.1,38.1,4.2L38.1,4.2z"/>
	</g>
	<g id="Layer_13" class="st0">
		<g class="st3">
			<path class="st7" d="M14.3,64c-0.3,2.8,2,2.9,2.3,2.9l0,0h5.7v-18C18,52.5,15,57.8,14.3,64z M36.4,51.8c-5.8,0-9-6.2-9-6.2l0,0
				v21.2h18.3v-21c-0.1,0-0.2-0.1-0.2-0.1C45.4,45.6,42.1,51.8,36.4,51.8z M58.5,64c-0.7-6-3.6-11.3-7.8-15v17.8h5.4l0,0
				C56.5,66.8,58.8,66.7,58.5,64z"/>
		</g>
		<ellipse class="st9" cx="28.3" cy="28.5" rx="2" ry="2"/>
		<ellipse class="st9" cx="43.1" cy="28.5" rx="2" ry="2"/>
		<path class="st9" d="M63.3,15.5c-0.6-0.1-1.2-0.2-1.8-0.2c-2.9,0-5,1.7-6.4,3.4c-0.4-2.4-1.2-5.2-2.8-7.8
			c-2.6-4.4-7.8-8.2-16.1-8.2c-0.1,0-0.1,0-0.2,0h-0.1h-0.1c-9,0-14.3,4.3-16.9,9.2c-1.3,2.3-2,4.7-2.4,6.9
			c-1.4-1.7-3.5-3.5-6.5-3.5c-0.6,0-1.2,0.1-1.8,0.2c-1.6,0.4-2.8,1.3-3.6,2.7c-2,3.6-0.7,9.5-0.3,10.9c0.1,0.3,0.3,0.5,0.6,0.5
			c0,0,0,0,0.1,0c0.3,0,0.5-0.2,0.6-0.4c0.7-1.4,2.9-5.2,5-6c0.9-0.3,1.7-0.5,2.6-0.5c0.8,0,1.5,0.1,2.2,0.4c-1,0.3-1.9,0.9-2.5,1.7
			c-0.9,1.1-1.2,2.5-1.2,3.8c0,0.5,0,1,0.1,1.5c0.3,1.5,0.9,2.9,2,4c1,1.1,2.6,1.8,4.2,1.8l0,0c0.2,0,0.5,0,0.7,0s0.3-0.1,0.5-0.1
			c3.2,5.9,9.4,9.8,16.4,9.9c7.1,0,13.2-4,16.4-9.8c0.1,0,0.2,0,0.4,0.1c0.3,0,0.6,0,0.8,0l0,0c1.7,0,3.2-0.7,4.2-1.7
			c1.1-1.1,1.7-2.5,2-4c0.1-0.5,0.1-0.9,0.1-1.4c0-1.4-0.4-2.8-1.3-4c-0.6-0.8-1.6-1.5-2.7-1.8c0.8-0.3,1.6-0.4,2.4-0.4
			c0.9,0,1.8,0.2,2.6,0.5c2.1,0.8,4.3,4.6,5,6c0.1,0.2,0.4,0.4,0.6,0.4c0,0,0,0,0.1,0c0.3,0,0.5-0.2,0.6-0.5
			c0.5-1.4,1.7-7.2-0.3-10.9C66.1,16.9,64.9,15.9,63.3,15.5z M56.2,28.9c0,0.2,0,0.5-0.1,0.8c-0.2,0.9-0.5,1.6-0.9,2
			s-0.9,0.6-1.6,0.7c0-0.7-0.5-1.3-1.2-1.6c-0.2-0.1-0.4-0.1-0.6-0.1c-0.8,0-1.5,0.5-1.7,1.2c0,0.1-0.1,0.3-0.1,0.4
			c-0.1,0.1,0,0.1-0.1,0.3c-2.3,5.6-7.7,9.5-14,9.5l0,0l0,0c-6.3,0-11.8-4-14.1-9.6c0-0.1-0.2-0.3-0.4-0.9c-0.3-0.7-1-1.2-1.7-1.2
			c-0.2,0-0.4,0-0.6,0.1c-0.8,0.3-1.3,1.1-1.2,1.9c-0.6-0.1-1-0.3-1.4-0.7c-0.4-0.4-0.8-1.2-1-2.1c-0.1-0.3-0.1-0.6-0.1-0.9
			c0-0.8,0.2-1.3,0.5-1.6c0.2-0.3,0.5-0.5,1.1-0.6c0.2,0.1,0.5,0.2,0.8,0.2l0,0c0.3,0,0.6-0.1,0.8-0.2c0.4,0.1,0.8,0.2,1.3,0.2
			c5.8,0,14.6-10.1,14.6-10.1c-0.4,3.4-1.8,8.1-1.8,8.1c6.3-3.5,5.8-13.1,5.8-13.1C44.7,25,52.8,26.3,52.8,26.3s1.2,0.1,1.3,0.2
			c0.8,0.1,1.2,0.4,1.5,0.8C56,27.6,56.2,28.2,56.2,28.9z"/>
	</g>
	<g id="Layer_14" class="st0">
		<g class="st3">
			<path d="M39.2,37c0.5-2.2,1-4.4,1-7.3c0-8.8-7.1-15.9-15.9-15.9S8.4,20.9,8.4,29.7c0,3,0.7,5.8,1,7.4c0.8,4,1.5,7.1-1.6,9.6
				c-0.1,0.1-0.1,0.2-0.1,0.3c0.1,0,0.2,0,0.3,0c3.9,0,7.1,0,10.3,0c1.7,1.2,3.7,1.8,5.9,1.8s4.2-0.6,6-1.8c3.1,0,6.5,0,10.5,0
				c0.1,0,0.2-0.1,0.3-0.2c0-0.1,0-0.3-0.1-0.3C37.6,44.1,38.4,41,39.2,37z M15.3,20.7c1.2-0.2,1.9-0.4,3.3-0.7c1-1,1.5-1.5,2.4-2.4
				c0.1-0.1,0.3-0.1,0.4,0c1.4,1.3,1.9,2.3,2.2,4.2c0,0.2-0.1,0.3-0.2,0.3c-1.2,0.2-1.9,0.4-3.3,0.7c-1,1-1.5,1.5-2.4,2.4
				c-0.1,0.1-0.1,0.1-0.2,0.1l0,0c-0.1,0-0.2,0-0.2-0.1c-1.4-1.3-1.9-2.3-2.2-4.2C15.1,20.9,15.2,20.7,15.3,20.7z M37.8,33.7
				c-0.2,1.8-1.2,3.1-2,3.1c-0.4,0-0.7-0.2-1.1,0c-0.3,0.1-0.5,0.4-0.5,0.7c-1.5,6-5.3,9.5-10,9.5c-4.6,0-8.4-3.6-9.9-9.5
				c-0.1-0.3-0.3-0.5-0.6-0.7c-0.3-0.1-0.6,0-1.1,0c-0.8,0.1-1.8-1.2-2-3.1c-0.2-1.9,0.5-3.5,1.2-3.6c0.1,0.4,0.5,0.7,1,0.7l0,0
				c0.5,0,0.9-0.4,1-0.8c0.2-1,0.5-2,0.9-3c1.8,1.3,5,3,9.8,3c1.9,0,4-0.3,6.1-0.8c0.1,0,0.2-0.1,0.2-0.3c0-0.1-0.1-0.2-0.2-0.3
				c0,0-2.4-0.8-3.6-2.7c3-0.6,7.2,1.9,7.5,4.1c0.1,0.5,0.5,0.8,1.1,0.8c0.4,0,0.8-0.3,0.9-0.7C37.4,30.3,38,31.8,37.8,33.7z"/>
			<circle cx="19.4" cy="32.9" r="1.6"/>
			<circle cx="29.2" cy="32.9" r="1.6"/>
			<path d="M24.3,40.8c-2.5,0-3.5-0.9-3.5,0.3c0,1.1,1.6,2.2,3.5,2.2s3.5-1.1,3.5-2.2C27.8,39.9,27,40.8,24.3,40.8z"/>
		</g>
		<path class="st3" d="M61.3,28c-0.5-4.8-3.3-8.9-7.3-11.2c1.2,0,2,0.1,2,0.1c0.1,0,0.3-0.1,0.3-0.2s0-0.3-0.1-0.3
			c-2.7-1.6-5.5-2.5-8.4-2.5c-3,0-5.1,0.9-5.5,1.1c-0.3,0-0.6,0-0.9,0c-4.9,0-7.3,3.7-7.4,3.9c0,0.1,0,0.2,0,0.3
			c0.1,0.1,0.3,0.1,0.3,0.1c0.7-0.3,1.5-0.5,2.1-0.7C33.8,21,32,24.3,31.6,28c-1.4,0.9-2.3,3-2,5.5c0.4,2.9,2.2,5,4.3,5
			c2.1,6.4,6.7,10.3,12.5,10.3S56.9,45,58.9,38.5l0,0c2.1,0,3.9-2.1,4.2-5c0.2-1.4,0-2.7-0.6-3.8C62.3,28.9,61.8,28.4,61.3,28z
			 M61.3,33.2c-0.2,2-1.4,3.3-2.3,3.2c-0.4-0.1-0.6-0.3-1.1,0c-0.3,0.1-0.5,0.4-0.5,0.6c-1.7,6.1-5.7,9.7-10.9,9.7
			c-5.1,0-9.2-3.6-10.9-9.7c-0.1-0.3-0.3-0.5-0.5-0.6c-0.5-0.2-0.7,0-1.1,0c-0.9,0.1-2.1-1.2-2.3-3.2c-0.3-2,0.6-3.6,1.5-3.7
			c0.2,0,0.4,0,0.6,0.1c0.3,0.1,0.6,0,0.9,0c1.3-0.2,4.3-0.8,6.8-4.1c1.7,1.3,6.3,4.2,14,4.2c0.3,0,0.7,0,1,0c0.1,0,0.3-0.1,0.3-0.2
			s0-0.3-0.2-0.3c0,0-1.3-0.5-2.8-1.5c1.2,0,2.4-0.1,3.6-0.3c0.2,0.5,0.3,1,0.4,1.5c0.1,0.3,0.3,0.6,0.5,0.7c0.3,0.1,0.6,0.1,0.9,0
			c0.2-0.1,0.4-0.1,0.6-0.1c0.6,0.1,0.9,0.7,1.1,1C61.3,31.2,61.4,32.2,61.3,33.2z"/>
	</g>
	<g id="Layer_15" class="st0">
		<g class="st3">
			<path class="st10" d="M16.6,25.9V61c0,1.7,1.4,3.1,3.1,3.1s3.1-1.4,3.1-3.1V41.1H24V61c0,1.7,1.4,3.1,3.1,3.1s3.1-1.4,3.1-3.1
				V25.9c1.1,2.4,2.1,6.1,1.6,15C31.7,42,32.6,43,33.7,43h0.1c1.1,0,2-0.8,2-1.9c0.6-10.7-0.7-16.7-4-19.8c-1.4-1.3-2.8-1.6-3.5-1.6
				h-0.1h-9.8h-0.1c-0.7,0-2.1,0.2-3.5,1.6c-3.3,3.1-4.6,9.1-4,19.8c0.1,1.1,1,1.9,2,1.9h0.1c1.1-0.1,2-1,1.9-2.1
				C14.5,32.1,15.5,28.3,16.6,25.9z"/>
			<circle class="st10" cx="23.5" cy="12.7" r="5.7"/>
		</g>
		<g class="st3">
			<path class="st11" d="M38.2,62c0,1.2,1,2.2,2.2,2.2s2.2-1,2.2-2.2v-9.9c-1.7,0-3.1-0.2-4.4-0.4V62z"/>
			<path class="st11" d="M43.3,62c0,1.2,1,2.2,2.2,2.2s2.2-1,2.2-2.2V51.7c-1.2,0.2-2.7,0.4-4.4,0.4V62z"/>
			<path class="st11" d="M32.4,44.7c0.8,0.1,1.5-0.4,1.6-1.2c0.7-5.4,1.1-8.8,2.3-10.9c0.3-0.5,0.6-1,1-1.4l-3.7,18.4
				c0,0,3.3,2,9.4,2s9.4-2,9.4-2l-3.7-18.4c0.3,0.4,0.6,0.9,1,1.4c1.2,2.1,1.6,5.5,2.3,10.9c0.1,0.7,0.7,1.2,1.4,1.2
				c0.1,0-0.8,0-0.7,0c0.8-0.1,2.2-0.8,2.1-1.6c-1.4-10.6-3.9-14.5-6.2-16c-0.9-0.6-1.7-0.8-2-0.8c-0.4-0.1-2-0.5-3.6-0.5
				s-3.2,0.4-3.6,0.5c-0.3,0.1-1.1,0.2-2,0.8c-2.3,1.5-4.8,5.4-6.2,16C31.1,43.9,31.7,44.6,32.4,44.7z"/>
			<circle class="st11" cx="43" cy="20.2" r="4.7"/>
		</g>
	</g>
	<g id="Layer_16" class="st0">
		<path class="st9" d="M49,54.9c-0.2,1.9-1,4-1,4H25.8H3.6c0,0-0.8-2.1-0.9-4c-0.4-3.6,2-5.3,5.3-6.6c3.8-1.6,8.9-4.8,11.3-5.7
			l0.4-2.9c-1.4-1.8-1.6-3.2-2.2-5.8c-0.5-0.3-0.9-0.8-1-1.4l-0.8-4.6c0-0.7,0.3-1.3,0.8-1.6c0-6.8,2.6-11.2,9.6-11.2
			s9.6,4.4,9.6,11.2c0.5,0.3,0.8,0.9,0.8,1.6l-0.8,4.6c-0.1,0.6-0.5,1.1-1,1.4c-0.7,2.6-0.8,4.1-2.2,5.8l0.4,2.9
			c2.4,0.9,7.5,3.9,11.3,5.5C47,49.5,49.3,51.3,49,54.9z M63.3,50.2c-3.9-2.2-8.8-4.1-9.6-5.6c0.7-1.7,4-0.4,6.2-1.6
			c0.4-0.2,0.4-0.5,0.1-1c-1.2-2-2.9-5-2.9-11.6c0-6.7-3.3-11.7-9.3-11.7s-9.3,5.1-9.3,11.7c0,6.1-1.5,7.6-2.9,10.3
			c-0.2,0.3-0.2,0.6-0.2,0.8c0.7,0.3,7.6,3.8,9.3,4.6c1.8,0.8,7.1,3,6.5,9.1c-0.1,1.4-0.6,2.9-0.8,3.8h16c0,0,0.9-2.2,1-4.2
			C67.5,52.6,66.5,52,63.3,50.2z"/>
	</g>
	<g id="Layer_17" class="st0">
		<path class="st9" d="M67.6,44.5C67.4,43,65,41.8,62,41.6c-0.2,0-0.5-0.1-0.7-0.1c1.6-0.8,2.5-2.5,2.1-3.9
			c-0.9-3.9-1.8-7.8-2.8-11.7c0.1-7.1-5.2-11.6-10.9-11.3c-5.7-0.3-11,4.2-10.9,11.3c-0.9,3.9-1.8,7.8-2.8,11.7
			c-0.4,1.5,0.5,3.1,2.1,3.9c-0.2,0-0.5,0.1-0.7,0.1c-3,0.2-5.5,1.4-5.6,2.9l-1.4,13.2c5.8,2,12.4,2.1,19.3,2.1s13.5-0.2,19.3-2.1
			L67.6,44.5z M41.5,29.4c-0.2-0.9-0.3-1.7-0.2-2.5l2.5-0.8l1.6-4.9c0,0,1.5,4.5,3,5l-0.7-2.8c0,0,1.6,2.4,3,3c2.1,0.9,6.1,1,7.3,1
			c0,0.7-0.1,1.3-0.2,2C56.5,36,53.2,39,49.6,39C46.2,39.1,42.9,36,41.5,29.4z M49.7,49.9c-5,0-9.1-3.5-9.1-7.8c0-0.1,0-0.3,0-0.4
			c1-0.2,2-0.3,3-0.4c0.4,0.9,1,1.7,1.8,2.4c-0.3-0.9-0.5-1.9-0.7-2.9c0-0.2,0-0.4-0.1-0.6c0-0.3,0-0.5,0-0.8c1.3,1,2.8,1.6,4.3,1.7
			c0.2,0,0.5,0,0.7,0s0.5,0,0.7,0c1.5-0.1,3-0.7,4.3-1.7c0,0.3,0,0.5,0,0.8c0,0.2,0,0.4-0.1,0.6c-0.1,1-0.3,2-0.7,2.9
			c0.8-0.6,1.4-1.5,1.8-2.4c1,0.1,2,0.3,3,0.5c0,0.1,0,0.3,0,0.4C58.8,46.4,54.7,49.9,49.7,49.9z"/>
		<g class="st3">
			<path class="st12" d="M44.2,47.3c-0.2-1.7-3-3.1-6.5-3.4c-1.9-0.3-3.7-0.6-5.6-0.8l0.1,0.1l-8.6,9.3L15,43.2l0.1-0.1
				c-1.9,0.2-3.8,0.5-5.6,0.8C6,44.1,3.2,45.5,3,47.3L1.3,62.5C8,64.8,15.6,65,23.6,65s15.6-0.2,22.3-2.5L44.2,47.3z"/>
			<path class="st7" d="M14.1,34.4c0.1,0,0.3-0.2,0.3-0.3c2.3,5.1,5.6,7.5,9.1,7.5s6.9-2.4,9.1-7.5c0.1,0.2,0.2,0.3,0.3,0.3
				c0.6,0.2,1.5-1,2.1-3.2c0.7-2.3,0.6-4.5-0.3-4.7C36,16.9,30,10.6,23.4,11c-6.6-0.4-12.6,5.9-11.3,15.5c-0.8,0.3-0.9,2.5-0.3,4.7
				C12.6,33.4,13.5,34.6,14.1,34.4z M32.2,27c0,0.5-0.2,1-0.5,1.4c-0.5,0.5-1.2,0.8-1.9,0.9h-1.3c-0.7,0-1.4-0.3-1.9-0.8
				C26.2,28.1,26,27.6,26,27v-0.7l0,0c2-0.6,4.1-0.5,6.1,0.1l0,0L32.2,27z M25.3,25l-0.4,0.1l-0.1,0.4c0,0.2-0.1,0.3-0.1,0.5h-2.4
				c0-0.2,0-0.3-0.1-0.4l-0.1-0.4l-0.4-0.1c-2.5-0.9-5.3-0.9-7.7-0.1l-0.2,0.1c0-0.3,0-0.7,0-1c0.3-0.1,0.7-0.5,0.8-1.7
				c0.1-1,0-2.1,0.1-3.1c0.9-0.8,2.4-2,4.1-1.9c0.9,0.5,1.7,0.6,2.5,1.1c0.7,0.4,3.5,0.4,4.2,0c0.8-0.5,1.6-0.6,2.5-1.1
				c1.7,0,3.2,1.1,4.1,1.9c0.1,1,0,2.1,0.1,3.1c0.2,1.2,0.5,1.6,0.8,1.7c0,0.4,0,0.7-0.1,1.1l0.1-0.1C30.5,24.2,27.8,24.2,25.3,25z
				 M21,27c0,0.5-0.2,1-0.5,1.4c-0.5,0.5-1.2,0.8-1.9,0.9h-1.3c-0.7,0-1.4-0.3-1.8-0.8c-0.4-0.4-0.6-0.9-0.6-1.5v-0.7l0,0
				c2-0.6,4.1-0.5,6.1,0.1l0,0V27z M23.6,39.2c-3.6,0-6.9-3-8.8-9.5c0.7,0.6,1.6,0.9,2.5,0.9l0,0h1.4c1.1,0,2.2-0.5,2.9-1.3
				c0.4-0.5,0.7-1.1,0.8-1.7h2.4c0.1,0.7,0.4,1.3,0.9,1.8c0.7,0.8,1.7,1.2,2.8,1.2h1.4c0.9,0,1.8-0.4,2.5-0.9
				C30.5,36.1,27.2,39.2,23.6,39.2z"/>
		</g>
	</g>
	<g id="Layer_18" class="st0">
		
			<image style="display:inline;overflow:visible;enable-background:new    ;" width="204" height="204" xlink:href="473C02A478099EA8.png"  transform="matrix(1 0 0 1 -64 -44)">
		</image>
	</g>
	<g id="Layer_19" class="st0">
		<g id="mGYU4W.tif" class="st3">
			
				<image style="overflow:visible;enable-background:new    ;" width="197" height="191" id="Layer_1_2_" xlink:href="473C02A478099EA9.png"  transform="matrix(0.2917 0 0 0.293 6.8476 7.7732)">
			</image>
		</g>
	</g>
	<g id="Layer_20" class="st0">
		<g id="Skuilv.tif" class="st3">
			
				<image style="overflow:visible;enable-background:new    ;" width="194" height="188" id="Layer_1_4_" xlink:href="473C02A478099EAF.png"  transform="matrix(0.3003 0 0 0.3018 7.25 8.2669)">
			</image>
		</g>
	</g>
</g>
<g id="Layer_1_copy">
	<g id="Layer_1_7_" class="st0">
		<path class="st1" d="M67.1,42l-11.5-8.5c-0.6-0.5-0.9-1.3-0.7-2l3.6-13.2c0.2-0.6,0-1.3-0.3-1.7c-0.4-0.5-1-0.7-1.6-0.6L42,17.5
			c-0.8,0.1-1.5-0.3-1.8-1L33.6,2c-0.3-0.6-0.9-1-1.7-1c-0.7,0-1.4,0.5-1.8,1.1l-8.7,16c-0.5,0.8-1.4,1.3-2.3,1.1L7.2,16
			c-0.7-0.2-1.4,0-1.9,0.6c-0.5,0.5-0.7,1.3-0.5,2l3.1,11.6c0.1,0.4,0.4,0.6,0.8,0.5c0.4-0.1,0.6-0.4,0.6-0.8L9,22.3
			c0-0.3,0.1-0.6,0.4-0.8c0.3-0.2,0.6-0.3,0.9-0.2L20.9,24c0.9,0.2,1.8-0.2,2.3-1.1l7.3-13.4C30.7,9.2,31,9,31.4,9s0.7,0.2,0.8,0.5
			l5.7,12.1c0.3,0.7,1,1.1,1.8,1l12.1-1.2c0.3,0,0.6,0.1,0.8,0.3c0.2,0.2,0.2,0.6,0.2,0.9l-3,11c-0.2,0.8,0,1.6,0.7,2l9.7,7.2
			c0.3,0.2,0.4,0.5,0.4,0.9s-0.3,0.7-0.6,0.8l-11,5.4c-0.9,0.4-1.4,1.5-1.1,2.4L50.5,63c0.1,0.3,0,0.6-0.2,0.9s-0.4,0.4-0.7,0.5
			l-8.1,0.9c-0.3,0-0.6,0.3-0.6,0.6c0,0.3,0.2,0.6,0.5,0.7l12,2.2c0.7,0.1,1.4-0.1,1.9-0.7c0.5-0.5,0.7-1.3,0.5-2l-3.3-11.8
			c-0.3-1,0.2-2,1.1-2.5l13.1-6.5c0.6-0.3,1.1-0.9,1.2-1.6C68,43.1,67.7,42.4,67.1,42z M47.9,48c1.4-1.6,2.1-4.1,1.7-6.4
			c-0.3-2.1-1.4-4-3.2-5.4c-0.3-1.9-1.4-3.8-3-5.2c-1-0.8-2-1.4-3-1.6c-0.7-1.2-1.7-2.3-2.9-2.9c-1-0.6-2.1-0.9-3.2-0.9
			c-1.1-1.5-2.8-2.7-4.5-3.2c-1.8-0.5-3.5-0.3-4.8,0.7c-1.1,0.9-2.5,2.4-3.7,3.8c-0.4,0.4-0.8,0.9-1.1,1.2c-1.9,0.5-5.1,1.6-6,1.9
			l-1.5,1.2c-1.3,2.4-3.7,7.8-4,8.6l-0.3,0.7l0.1,0.8c0.4,2.8,0.6,4.8,0.7,6v0.4c-0.4,0.6-1.5,2.1-4.4,5.6l1,0.8L8,56.3
			c0.9-1,1.7-2,2-2.4c1,0.5,4.4,1.9,6.2,2.1c-0.7-1.2-2.4-6.2-2.7-7.4l0,0l0-0.6c0-0.2-0.1-0.6-0.1-1.1c-0.1-1.2-0.3-3.2-0.7-5.9
			c0.6-1.4,2.3-5.1,3.5-7.2c1.4-0.5,5.1-1.7,6.5-2l5.2,2.2c-1.2,1.7-0.2,2.7,0.3,2.9c0.5,0.3,2.3,0.7,3.2,1c0.6-0.8,0.9-1.3,1.3-1.9
			l1.5,0.6c-0.7,2.1-1.7,3.4-3.2,4.1c-1.9,0.9-5.3,0.9-8.6-1.9l0.1-1.9c0-0.3-0.2-0.6-0.5-0.6s-0.6,0.2-0.6,0.6l-0.3,3
			c0,0.1,1.5,1.3,2.2,1.7c0.5,1.5,1.7,5,2.2,7.6c1.4-2.8,3.1-4.7,4.1-5.2c0.2,0.8,0.7,1.7,1.5,2.4s2,1.2,3.7,1.4l0,0
			c0.5,0.9,1.2,1.8,2,2.5c0.6,0.5,1.3,1,2,1.3C36,54.4,34,56,33.3,56.1c-1.1,0.2-2.1,0.3-3,0.4c-0.8,0.1-1.5,0.2-2.4,0.3
			c-3,0.4-10,8.6-10.1,8.7l0,0l3.2,2.8c3.1-3.2,6.9-6.9,7.5-7.2c0.8-0.1,1.4-0.2,2.2-0.3c1-0.1,2.1-0.2,3.3-0.4
			C35.6,60.1,38.7,58.5,47.9,48z M24.3,29.9c0.1-0.1,0.1-0.1,0.2-0.2c1-1.2,2.4-2.6,3.2-3.3c0.1-0.1,0.4-0.1,1,0
			c1.2,0.4,2.5,1.5,2.8,2.5V29c-0.6,0.8-1.6,2.1-2.3,3C27.4,31.3,25.5,30.5,24.3,29.9z M30.8,32.7c0.6-0.8,1.5-2,2.1-2.7l0.3-0.1
			c0.7-0.2,1.6-0.1,2.3,0.3c0.6,0.3,1.3,1,1.6,2.2l0.1,0.3c-0.4,0.5-1,1.4-1.6,2.1C35.3,34.6,33.6,33.9,30.8,32.7z M34.7,45.2
			c-2.4-0.3-2.8-1.6-3-2.9c2.1-1,3.2-2.8,3.8-4.5c0.4-0.5,2.3-2.9,3.2-4.2l0.3-0.1c0.4-0.1,1.1,0.2,1.8,0.7l0,0
			c0.9,0.8,1.4,1.8,1.6,2.8C41.3,39.7,36.8,44.1,34.7,45.2z M37.1,46.7c2.2-1.6,5.1-4.5,6.7-7c1.1,0.9,1.6,1.9,1.7,2.7
			c0.2,1.3-0.3,2.4-0.7,2.9c-1.4,1.6-2.8,3.1-4,4.4C39.9,49.6,37.9,48.3,37.1,46.7z"/>
	</g>
	<g id="Layer_2_1_" class="st0">
		<path class="st2" d="M47.1,4.3C27.5,5.7,34.9,19.4,34.9,19.4S49.4,23.8,47.1,4.3z M31.6,19.8c-0.9-2.1-2.2-6.6-0.1-10.9
			c-1.8-1.2-4.5-2.1-8.6-2.4C21.3,19.2,28.2,20.1,31.6,19.8z M56.5,26.2c-4.7-5.1-15.4-5.9-21.5-2.3c-6.1-3.6-16.8-2.8-21.5,2.3
			C0.4,40.3,16.6,76.2,35,63.1C53.4,76.2,69.6,40.3,56.5,26.2z M20.9,34.5c-2.8,4-2.8,8.9-4.6,7.6c-1.8-1.3-2.9-6.9-0.1-10.9
			s8.5-4.8,10.3-3.5C28.4,28.9,23.7,30.5,20.9,34.5z"/>
	</g>
	<g id="Layer_3_1_" class="st0">
		<path class="st1" d="M49.9,3.4l-0.8,3c-0.3,1.1,1.7,4.2,4.6,7.4l-8,8l4.4,4.4l8-8c3.3,2.9,6.3,4.8,7.4,4.5l3-0.8L49.9,3.4z
			 M31.5,21l2.9,2.9L13,45.3c-0.5,0.5-0.7,1.2-0.6,1.9l1,4.8c0,0.2,0.1,0.4,0.2,0.6L11.2,55l1.6,1.6l-12,12L5.6,69l9.8-9.8l1.6,1.6
			l2.5-2.5c0.2,0.1,0.4,0.2,0.6,0.2l4.8,1c0.1,0,0.3,0,0.4,0c0.5,0,1.1-0.2,1.5-0.6l21.4-21.4l2.9,2.9l4.9-2.9L34.4,16.1L31.5,21z
			 M37.3,26.8l7.8,7.8L36,43.7H23.5L22,42.2l3.3-3.3l3.8,3.8l2.9-2.9L28.2,36l3.3-3.3l3.8,3.8l2.9-2.9l-3.8-3.8L37.3,26.8z"/>
	</g>
	<g id="Layer_4_1_" class="st0">
		<path class="st2" d="M31.5,54.5c0.6-5.9,0.5-11.7-0.4-17.3c0.7-0.1,1.3-0.2,2-0.3c0-0.6-0.1-1.2-0.1-1.8c0-0.5,0-1,0-1.5
			c-0.9,0.1-1.7,0.2-2.6,0.4c-1.1-5-2.8-9.7-5.1-14.2c0.2,0,0.3,0,0.5,0c3.4,0.2,6.6,1.4,9.2,3.2c0.6-1.8,1.3-3.4,2.1-5
			c-3.2-2-7-3.3-11-3.5c-0.5,0-1,0-1.5,0c-12.4,0-22.7,9.7-23.5,22c-0.4,6.2,1.7,12.3,5.9,17s9.9,7.5,16.2,7.9c0.5,0,1,0,1.5,0
			c5.5,0,10.7-1.9,14.7-5.2c-1-1.4-1.9-3-2.7-4.7C35.2,52.6,33.4,53.7,31.5,54.5z M21.7,19.9c2.5,4.6,4.3,9.5,5.5,14.6
			c-1.7,0.3-3.4,0.7-5.1,1.1c-1.7-5.1-4.8-9.2-8.9-11.9C15.7,21.7,18.5,20.4,21.7,19.9z M6.7,40.4c-0.2-1.2-0.2-2.5-0.2-3.8
			c0.2-4,1.8-7.6,4.2-10.5c3.7,2.2,6.5,5.8,8.1,10.3C14.1,37.7,10,39.1,6.7,40.4z M17.3,54.3c-2.4-1-4.5-2.6-6.2-4.6
			c-1.6-1.8-2.8-3.8-3.6-6c3.2-1.3,7.4-2.8,12.2-4.1C20.6,44.6,19.8,49.8,17.3,54.3z M28.1,55.5c-1.4,0.3-2.9,0.4-4.5,0.3
			c-1-0.1-2.1-0.2-3.1-0.5c2.7-5.1,3.5-10.9,2.4-16.6c1.6-0.4,3.2-0.7,4.9-1C28.8,43.5,28.9,49.5,28.1,55.5z M54.3,27.5H51v1.1h-2.1
			V32H51v1.4h-2.1v3.3H51v1.4h-2.1v3.3H51v1.1h3.3v-1.1h2.1v-3.3h-2.1v-1.4h2.1v-3.3h-2.1V32h2.1v-3.3h-2.1V27.5z M52.6,8.9
			c-7.4,0-16.3,11.7-16.3,26.1c0,14.5,8.9,26.1,16.3,26.1S68.9,49.4,68.9,35C68.9,20.6,60,8.9,52.6,8.9z M52.6,14.3
			c1.6,0,3.8,1.7,5.8,4.5c-3.9,0.5-7.8,0.5-11.7,0C48.8,15.9,51.1,14.3,52.6,14.3z M52.6,55.8c-1.6,0-3.8-1.7-5.8-4.5
			c3.9-0.5,7.8-0.5,11.7,0C56.4,54.2,54.2,55.8,52.6,55.8z M44.9,48.2c-1.8-3.5-3.2-8.1-3.2-13.2s1.4-9.7,3.2-13.2
			c2.6,0.4,5.2,0.6,7.7,0.6c2.6,0,5.2-0.2,7.7-0.6c1.8,3.5,3.2,8.1,3.2,13.2s-1.4,9.6-3.2,13.2C55.2,47.4,50,47.4,44.9,48.2z"/>
	</g>
	<g id="Layer_5_1_" class="st0">
		<g class="st3">
			<g>
				<path class="st4" d="M25.5,68.4v-8.5h6.2v8.5h6.4V57c0-1.5-0.6-2.9-1.6-3.9s-2.4-1.6-3.9-1.6H13.4c-1.5,0-2.9,0.6-3.9,1.6
					S7.9,55.5,7.9,57v11.4H17H25.5z M14.4,59.8h6.2v2.8h-6.2C14.4,62.6,14.4,59.8,14.4,59.8z"/>
				<path class="st4" d="M49.5,33v11.9h-6.2v-6.3h-8.7V45h-7.1v-6.4l4.2-9.1h-16l4.2,9.1V45H17v4.3h15.5c2.1,0,4,0.8,5.4,2.3
					c1.5,1.5,2.3,3.4,2.3,5.4v11.4h24.2V45h-4V33H49.5z M51.8,55.5c0.6,0,1,0.5,1,1c0,0.6-0.5,1-1,1c-0.6,0-1-0.5-1-1
					C50.8,55.9,51.2,55.5,51.8,55.5z M44,56.5c0-2.8,1.5-5.3,3.7-6.6l2.7,4.5c-0.7,0.5-1.2,1.3-1.2,2.2v0.2H44V56.5z M51.8,64.3
					c-1.5,0-2.8-0.4-4-1.1l2.7-4.5c0.4,0.2,0.8,0.3,1.3,0.3s0.9-0.1,1.3-0.3l2.7,4.5C54.6,63.9,53.3,64.3,51.8,64.3z M59.6,56.6
					h-5.2v-0.2c0-0.9-0.5-1.7-1.2-2.2l2.7-4.5c2.2,1.4,3.7,3.8,3.7,6.6V56.6z"/>
			</g>
			<path class="st4" d="M34.1,2.6C31.7,3.5,30.3,5.7,30,9c-1.8-2.4-4.5-1.9-6.1,0.1c-1.5,2-0.9,4.1,1,6.5c-1.8-1.2-4.3,0.5-2.7,3
				c-2.9-1.1-6,2.5-3.3,5.7c-1.6,0.4-1.9,1.5-2,2.4h13.7l0,0c0.2-0.8-0.1-1.6-0.7-2.3c2.6-0.1,4.1-3.4,1.6-5
				c1.2,0.8,6.6,2.2,5.9-3.2c2,3.2,4.3,5.8,8.1,4.9c3.3-0.8,3.3-6.1,0.3-7.4c2.3-0.9,4.1-3.4,2.3-6c-1.6-2.4-4.3-1.6-6.5-0.2
				C41.1,4,37.5,1.3,34.1,2.6z"/>
		</g>
	</g>
	<g id="Layer_6_1_" class="st0">
		<g class="st3">
			<path class="st5" d="M40.2,19.7c-0.2-2.5,1.4-3.8,2.3-4.5c0.6-0.5,1.3-0.8,2.1-1c0.1,0.7,0.3,1.5,0.6,2.2
				c1.7,3.6,6.1,5.2,9.7,3.4c3.6-1.7,5.2-6.1,3.4-9.7c-1.7-3.6-6.1-5.2-9.7-3.4c-2,0.9-3.3,2.7-3.9,4.6c-2.3-1-5-0.8-6.4,1.3
				C36.1,15.8,40.2,19.7,40.2,19.7z"/>
			<path class="st5" d="M39.8,28.3c-0.1,0.3-0.1,0.6-0.2,1c5.4-0.5,7.1-2.8,7.4-3.2l0.4-2.1C43.7,23.1,40.4,25.3,39.8,28.3z"/>
			<path class="st5" d="M46.7,27.4c-1.1,1-3.2,2.2-7.3,2.6c-0.6,2.7-1.6,5.7-2.2,8c-0.7,2.8,1.3,3.8,1.3,3.8l5.6,1L46.7,27.4z"/>
			<path class="st5" d="M57.8,24.8c0.3,2.1,0,4.7-1.8,7.5l3.9,1.5c-1-4.5-1.8-8.2-1.8-8.3C58,25.3,57.9,25,57.8,24.8z"/>
			<path class="st5" d="M63.8,64l-3.3-14.2h2.9c0,0-0.9-4.1-2-8.8c-0.3,0.1-0.5,0.1-0.8,0.1c-0.4,0-0.8-0.1-1.2-0.2l-8.7-3.4l0,0
				c-1.4,0.9-3,1.9-4.9,2.8c-0.9,5.1-1.6,9.6-1.6,9.6h3l-3.5,13.8c-0.7,1.7,0.1,3.7,1.9,4.4c1.7,0.7,3.7-0.1,4.4-1.9l3.9-14.7
				l3.6,14.9c0.6,1.8,2.6,2.7,4.3,2C63.5,67.7,64.4,65.8,63.8,64z"/>
			<path class="st5" d="M55.2,29.5c1.1-2.3,1.3-4.9-0.3-7.6c-0.5-0.2-1.1-0.3-1.7-0.3c-2.5,0-4.6,1.9-4.9,4.4c0,0.1-1,6-2.1,11.9
				c0,0,1.3-0.7,2.9-1.8c-0.4-0.7-0.6-1.5-0.4-2.3l1-7.1c0.1-0.4,0.4-0.7,0.8-0.6c-0.2,1.5-1.1,7.8-1.1,7.8
				c-0.2,1.2,0.4,2.4,1.6,2.9l0,0l0,0l8.7,3.4c1.3,0.5,2.9-0.1,3.4-1.5c0.5-1.3-0.1-2.9-1.5-3.4l-6.9-2.7C54.7,32.6,55,31,55.2,29.5
				z"/>
		</g>
		<g class="st3">
			<circle class="st5" cx="18.8" cy="9.4" r="7.3"/>
			<path class="st5" d="M12.8,22.9v-2.2c-3.7-0.3-6.7,2.5-6.7,5.6c0,0.3,0,0.6,0,1C11.4,25.9,12.7,23.4,12.8,22.9z"/>
			<path class="st5" d="M24.7,28.1c0,0.5,0,1.1,0,1.6v9.5l1.2,2.2l0,0c0.7,1.3,2.2,1.8,3.5,1.1s1.8-2.2,1.1-3.5l0,0l0,0L24.7,28.1z"
				/>
			<path class="st5" d="M12.8,24.3C12,25.4,10,27.1,6,28.1c-0.2,2.7-0.6,5.9-0.8,8.3c-0.1,1.6,0.5,2.6,1.1,3
				c0.1-0.2,0.1-0.4,0.3-0.7l0,0l6.3-11.8L12.8,24.3z"/>
			<path class="st5" d="M11.8,41.5c0.4-0.6,0.1-0.1,9.1-17l0,0c0.1-0.2,0.2-0.4,0.2-0.7c0.1,0,0.1,0,0.2,0.1c0.4,0.2,0.5,0.6,0.3,1
				l-3.4,6.3c-0.3,0.5-0.5,1-0.8,1.5c3.3-2.3,7.4-6.3,6.4-11.1c-0.6-2-2.5-3.5-4.7-3.5c-2.5,0-4.6,1.9-4.9,4.4c0,0,0,0.8,0,2l1-1.9
				c0.2-0.4,0.6-0.5,1-0.3L15.7,23l0,0L7.2,39l0,0c-0.7,1.3-0.2,2.8,1.1,3.5S11.1,42.8,11.8,41.5z"/>
			<path class="st5" d="M34.2,62.9L24,43.6c0-1.6,0-9.1,0-14.5c-1.5,2.3-4.1,4.7-8.4,7c-0.6,1.2-1.1,2.1-1.5,2.8
				c0.2,1.5,0.7,2.9,1.9,3.9c-1.1,3.6-6.6,21.5-6.6,21.5l0,0c-0.5,1.8,0.5,3.6,2.3,4.2c1.8,0.5,3.6-0.4,4.2-2.2l4.3-13.9l-3-5.6
				c-0.2-0.4-0.1-0.8,0.3-1l0,0l10.9,20.3c0.9,1.6,2.9,2.2,4.5,1.3C34.4,66.6,35.1,64.6,34.2,62.9z"/>
		</g>
	</g>
	<g id="Layer_9_1_" class="st0">
		<g class="st3">
			<path class="st7" d="M21.9,51.8c-0.9,0.1-1.7-0.6-1.8-1.5l-1.4-12.8l-4.5,1.6l2.5,30.1h7.2L22,51.6L21.9,51.8z M27.1,34.1
				l-2.8,1.8L26,49.4c0.1,0.9-0.6,1.7-1.5,1.8l0.1,0.1l1.9,17.9h19.3l1.9-17.9l0.1-0.1c-0.9-0.1-1.6-0.9-1.5-1.8L48,35.9l-2.8-1.8
				l-8.5,2.6 M53.7,37.5l-1.4,12.8c-0.1,0.9-0.9,1.6-1.8,1.5l-0.1-0.1l-1.9,17.6h7.2l2.5-30.1L53.7,37.5z"/>
			<g>
				<g>
					<path class="st7" d="M47.6,10l-0.1,0.2c-1.2,6.7-9.8,6.5-9.8,6.5l0.2-1.4c-1.9,3.4-7.8,4-7.8,4s0.4-1.6,0.3-3.1
						c-1.7,1.8-4.3,3.3-7.4,3.7h-0.1c1.2,6.2,6.7,10.8,13.2,10.8c7.5,0,13.5-6,13.5-13.5C49.7,14.6,48.9,12.1,47.6,10z M36.2,28.9
						L36.2,28.9c-4.9,0-9.3-3.1-11-7.6c0,0,15,1,22.3-6.8c0.2,0.9,0.3,1.9,0.3,2.8C47.9,23.7,42.6,28.9,36.2,28.9z"/>
				</g>
				<path class="st7" d="M21.8,17.2c0-8,6.5-14.4,14.5-14.4c3.9,0,7.5,1.6,10.1,4.1c0,0,0.2,5.7-6.4,7.3c0,0,0.5-3.2-0.8-4.6
					c0,0-2.3,6.2-7,7.3c0,0,0.3-2.7-1.2-4c0,0-4.1,5-9.1,5.2L21.8,17.2z"/>
			</g>
		</g>
	</g>
	<g id="Layer_10_1_" class="st0">
		<g class="st3">
			<circle class="st8" cx="38" cy="36.6" r="44.8"/>
			<g>
				<circle class="st7" cx="29.4" cy="28.8" r="11.5"/>
				<path class="st7" d="M45.9,58.6c0-9.1-7.4-15.5-16.4-15.5c-9.1,0-16.4,6.4-16.4,15.5v1.7H46v-1.7H45.9z"/>
				<polygon class="st7" points="60.6,18.1 60.6,15.3 54.6,15.3 54.6,10.5 54.5,10.5 43.8,10.5 36.7,13.5 36.7,16.3 50.8,16.3 
					50.8,60.3 54.5,60.3 54.5,56 60.6,56 60.6,53.2 54.5,53.2 54.5,42.7 60.6,42.7 60.6,39.9 54.5,39.9 54.5,29.4 60.6,29.4 
					60.6,26.7 54.5,26.7 54.5,18.1 				"/>
			</g>
		</g>
	</g>
	<g id="Layer_11_1_" class="st0">
		<g class="st3">
			<g>
				<path class="st7" d="M54.1,11.1c1.2-0.8,2.3-1.5,3.5-2.3c0,2.6,0,5.2,0,7.7c-0.2,0-0.4-0.1-0.5-0.3c-0.1-0.3-0.3-0.6-0.3-1
					c-0.2-0.7-0.3-1.5-0.4-2.2c0-0.2-0.1-0.5-0.3-0.7c-0.1-0.2-0.3-0.3-0.5-0.2c-0.3,0.1-0.7,0.3-1,0.4l-0.1,0.1c0.3,2-1,4.3-3.6,5
					c-3.3,0.9-5.7-1.3-6.4-3.4c-0.1-0.5-0.2-1-0.1-1.4c0,0,0-0.1-0.1-0.2c-0.4-0.2-0.7-0.3-1.1-0.5c-0.3-0.1-0.5,0-0.6,0.3
					c-0.1,0.4-0.3,0.8-0.3,1.3c-0.1,0.6-0.2,1.2-0.3,1.8c-0.1,0.3-0.2,0.5-0.3,0.8c-0.1,0.2-0.2,0.3-0.4,0.2c0-2.6,0-5.1,0-7.8
					c1.2,0.8,2.4,1.6,3.7,2.4c1-1.7,2.5-2.9,4.5-2.9C51.6,8.2,53,9.3,54.1,11.1z"/>
				<g>
					<path class="st7" d="M43,28.4l1.3-8.9c-0.1,0-0.1,0-0.2,0.1c-2,0.9-3,3.2-3,3.2l-5.2,13.7c0,0-0.5,1-0.4,1.8
						c0.2,0.9,1.3,2,2.8,1.2c0.7-0.3,1-1.4,1-1.4L43,28.4z"/>
					<path class="st7" d="M54.1,29.9l-1.5-11c-1.4-0.2-2.8-0.1-3.1,0c-0.4,0-1.7-0.2-3.2,0l-1.5,11c0,0-0.3,2.2-0.6,3.3
						c-1.3,6.5-5,16.1-5,16.1h4.7l2,13c0,0-1,0.2-1.5,0.7c-0.4,0.4-0.3,1.4-0.3,1.4h3.8v-15h1.6h1.6v15.1h3.8c0,0,0.1-1-0.3-1.4
						C54,62.7,53,62.4,53,62.4l2-13h4.7c0,0-3.7-9.7-5-16.1C54.5,32.1,54.1,29.9,54.1,29.9z"/>
					<path class="st7" d="M63,36.4l-5.2-13.7c0,0-1.1-2.3-3-3.2c-0.1,0-0.1-0.1-0.2-0.1l1.2,8.8l3.7,9.7c0,0,0.4,1.1,1,1.4
						c1.5,0.8,2.6-0.2,2.8-1.2C63.5,37.4,63,36.4,63,36.4z"/>
				</g>
			</g>
			<g>
				<ellipse class="st7" cx="21.1" cy="8.3" rx="5.2" ry="5.2"/>
				<path class="st7" d="M14.8,24.3l1.3-8.9c-0.1,0-0.1,0-0.2,0.1c-2,0.9-3,3.2-3,3.2L7.7,32.3c0,0-0.5,1-0.4,1.8
					c0.2,0.9,1.3,2,2.8,1.2c0.7-0.3,1-1.4,1-1.4L14.8,24.3z"/>
				<path class="st7" d="M34.7,32.3l-5.2-13.7c0,0-1.1-2.3-3-3.2c-0.1,0-0.1-0.1-0.2-0.1l1.2,8.8l3.7,9.7c0,0,0.4,1.1,1,1.4
					C33.7,36,34.8,35,35,34C35.2,33.3,34.7,32.3,34.7,32.3z"/>
				<path class="st7" d="M28.3,63.2c-0.4-0.4-1.3-0.4-1.3-0.4l0.3-17.5l0.2-12c-0.4-1.4-0.7-2.8-1-4.1c-0.2-1.1-0.6-3.3-0.6-3.3
					l-0.1-0.5l0,0L24.3,15c-0.1,0-0.2,0-0.2,0h-2.8h-0.1h-0.3h-2.5c-0.1,0-0.2,0-0.3,0l-1.5,11c0,0-0.3,2.2-0.6,3.3
					c-0.3,1.5-0.7,3.1-1.2,4.8L15,45.4l0.3,17.5c0,0-0.9,0-1.3,0.4c-0.5,0.5-0.4,1.4-0.4,1.4h6.1V45.4V41h1.2h0.4h1.2v4.4v19.3h6.1
					C28.6,64.6,28.7,63.7,28.3,63.2z"/>
			</g>
		</g>
	</g>
	<g id="Layer_12_1_" class="st0">
		<path class="st9" d="M25.1,21.4c-0.7,0.4-1.4,1.4-0.8,3.4c0.6,1.9,2.1,3.5,3.3,3.7c0.9,4.3,3.6,8.2,8.4,8.2s7.5-3.9,8.4-8.2
			c1.1-0.2,2.7-1.6,3.3-3.7c0.7-2.3-0.1-3.2-0.9-3.5c0.4-1.1,0.6-1.9,0.2-3.4c0.5-1,0.5-1.1,0.5-2.1c0.3-0.3,0.5-0.6,0-1
			c0-0.6,0-2.1-0.5-2.5c0.2-0.4,0.3-0.9,0.3-1.6c-0.1-1.3-0.8-2.9,0.4-3.5c-0.2-0.2-2.9,0.5-4.1,1.9c-0.1-1.7,1.5-3.2,3.1-3.2
			c-1.2-0.6-2.5-0.6-3.5-0.2c-0.3-1.5-1.7-2.3-3-1.7c-0.2-0.2-0.6-1-1.3-1.1c-3.3,0.8-3.5,3.3-3.5,3.8c0-0.3-1.7-3.1-5.6-2.6
			c1.6,1,1.9,2.9,1.9,2.9c-1.9-2.7-6.6-2.1-6.8,0c0,0.2,0,0.9,0.1,1.4c-0.6,0.2-1,0.5-1.4,1c1.5,0.1,1.8,1.3,1.5,2.1
			c-2.3,0-1.6,0.6-1,1.6c-0.3,0.5-0.3,1.8-0.3,2.4c-0.3,0.2-0.2,0.5,0,0.7c0,1.3,0,1.5,0.8,2.8C24.5,19.9,24.8,20.8,25.1,21.4
			L25.1,21.4z M28.3,36.9l-2.4,2.6L24.1,40c3.2,6.6,3.6,17.5-2.4,26.8h28.7c-6-9.3-5.6-20.2-2.4-26.8l-2-0.6l-2.4-2.6
			c-3.1,4.6-5.3,0.2-7,4.8h-1.5C33.6,37.1,31.4,41.5,28.3,36.9L28.3,36.9z M18.2,41.8l-2.1,0.6c-5.2,1.6-4.9,15.1-5.1,21
			c-0.1,1.9,1.6,3.5,3.5,3.5H18C21.5,57.8,20.4,47.9,18.2,41.8L18.2,41.8z M54.2,66.9h3.3c1.9,0,3.5-1.6,3.5-3.5
			c-0.2-5.8,0.1-19.4-5.1-21L54,41.8C51.8,48,50.7,57.8,54.2,66.9L54.2,66.9z M40.8,7.7c-0.1,0-0.3-0.1-0.4-0.1
			c-0.2-1-0.2-2.4,0.7-2.4c0.7,0.1,0.8,0.6,0.9,1.1C41.5,6.7,41.1,7.1,40.8,7.7L40.8,7.7z M26,8.2c0.9-0.1,1.8-0.1,2.6,0
			c-0.1,0-0.4-0.9-1.6-1.8C26.3,6.7,26,7.4,26,8.2L26,8.2z M38.1,4.2c-0.2,0.6-0.3,1.3-0.2,1.9c0.4-0.7,1-1.4,1.7-1.9
			C39.2,4.1,38.6,4.1,38.1,4.2L38.1,4.2z"/>
	</g>
	<g id="Layer_13_1_" class="st0">
		<g class="st3">
			<path class="st7" d="M14.3,64c-0.3,2.8,2,2.9,2.3,2.9l0,0h5.7v-18C18,52.5,15,57.8,14.3,64z M36.4,51.8c-5.8,0-9-6.2-9-6.2l0,0
				v21.2h18.3v-21c-0.1,0-0.2-0.1-0.2-0.1C45.4,45.6,42.1,51.8,36.4,51.8z M58.5,64c-0.7-6-3.6-11.3-7.8-15v17.8h5.4l0,0
				C56.5,66.8,58.8,66.7,58.5,64z"/>
		</g>
		<ellipse class="st9" cx="28.3" cy="28.5" rx="2" ry="2"/>
		<ellipse class="st9" cx="43.1" cy="28.5" rx="2" ry="2"/>
		<path class="st9" d="M63.3,15.5c-0.6-0.1-1.2-0.2-1.8-0.2c-2.9,0-5,1.7-6.4,3.4c-0.4-2.4-1.2-5.2-2.8-7.8
			c-2.6-4.4-7.8-8.2-16.1-8.2c-0.1,0-0.1,0-0.2,0h-0.1h-0.1c-9,0-14.3,4.3-16.9,9.2c-1.3,2.3-2,4.7-2.4,6.9
			c-1.4-1.7-3.5-3.5-6.5-3.5c-0.6,0-1.2,0.1-1.8,0.2c-1.6,0.4-2.8,1.3-3.6,2.7c-2,3.6-0.7,9.5-0.3,10.9c0.1,0.3,0.3,0.5,0.6,0.5
			c0,0,0,0,0.1,0c0.3,0,0.5-0.2,0.6-0.4c0.7-1.4,2.9-5.2,5-6c0.9-0.3,1.7-0.5,2.6-0.5c0.8,0,1.5,0.1,2.2,0.4c-1,0.3-1.9,0.9-2.5,1.7
			c-0.9,1.1-1.2,2.5-1.2,3.8c0,0.5,0,1,0.1,1.5c0.3,1.5,0.9,2.9,2,4c1,1.1,2.6,1.8,4.2,1.8l0,0c0.2,0,0.5,0,0.7,0s0.3-0.1,0.5-0.1
			c3.2,5.9,9.4,9.8,16.4,9.9c7.1,0,13.2-4,16.4-9.8c0.1,0,0.2,0,0.4,0.1c0.3,0,0.6,0,0.8,0l0,0c1.7,0,3.2-0.7,4.2-1.7
			c1.1-1.1,1.7-2.5,2-4c0.1-0.5,0.1-0.9,0.1-1.4c0-1.4-0.4-2.8-1.3-4c-0.6-0.8-1.6-1.5-2.7-1.8c0.8-0.3,1.6-0.4,2.4-0.4
			c0.9,0,1.8,0.2,2.6,0.5c2.1,0.8,4.3,4.6,5,6c0.1,0.2,0.4,0.4,0.6,0.4c0,0,0,0,0.1,0c0.3,0,0.5-0.2,0.6-0.5
			c0.5-1.4,1.7-7.2-0.3-10.9C66.1,16.9,64.9,15.9,63.3,15.5z M56.2,28.9c0,0.2,0,0.5-0.1,0.8c-0.2,0.9-0.5,1.6-0.9,2
			s-0.9,0.6-1.6,0.7c0-0.7-0.5-1.3-1.2-1.6c-0.2-0.1-0.4-0.1-0.6-0.1c-0.8,0-1.5,0.5-1.7,1.2c0,0.1-0.1,0.3-0.1,0.4
			c-0.1,0.1,0,0.1-0.1,0.3c-2.3,5.6-7.7,9.5-14,9.5l0,0l0,0c-6.3,0-11.8-4-14.1-9.6c0-0.1-0.2-0.3-0.4-0.9c-0.3-0.7-1-1.2-1.7-1.2
			c-0.2,0-0.4,0-0.6,0.1c-0.8,0.3-1.3,1.1-1.2,1.9c-0.6-0.1-1-0.3-1.4-0.7c-0.4-0.4-0.8-1.2-1-2.1c-0.1-0.3-0.1-0.6-0.1-0.9
			c0-0.8,0.2-1.3,0.5-1.6c0.2-0.3,0.5-0.5,1.1-0.6c0.2,0.1,0.5,0.2,0.8,0.2l0,0c0.3,0,0.6-0.1,0.8-0.2c0.4,0.1,0.8,0.2,1.3,0.2
			c5.8,0,14.6-10.1,14.6-10.1c-0.4,3.4-1.8,8.1-1.8,8.1c6.3-3.5,5.8-13.1,5.8-13.1C44.7,25,52.8,26.3,52.8,26.3s1.2,0.1,1.3,0.2
			c0.8,0.1,1.2,0.4,1.5,0.8C56,27.6,56.2,28.2,56.2,28.9z"/>
	</g>
	<g id="Layer_14_1_" class="st0">
		<g class="st3">
			<path d="M39.2,37c0.5-2.2,1-4.4,1-7.3c0-8.8-7.1-15.9-15.9-15.9S8.4,20.9,8.4,29.7c0,3,0.7,5.8,1,7.4c0.8,4,1.5,7.1-1.6,9.6
				c-0.1,0.1-0.1,0.2-0.1,0.3c0.1,0,0.2,0,0.3,0c3.9,0,7.1,0,10.3,0c1.7,1.2,3.7,1.8,5.9,1.8s4.2-0.6,6-1.8c3.1,0,6.5,0,10.5,0
				c0.1,0,0.2-0.1,0.3-0.2c0-0.1,0-0.3-0.1-0.3C37.6,44.1,38.4,41,39.2,37z M15.3,20.7c1.2-0.2,1.9-0.4,3.3-0.7c1-1,1.5-1.5,2.4-2.4
				c0.1-0.1,0.3-0.1,0.4,0c1.4,1.3,1.9,2.3,2.2,4.2c0,0.2-0.1,0.3-0.2,0.3c-1.2,0.2-1.9,0.4-3.3,0.7c-1,1-1.5,1.5-2.4,2.4
				c-0.1,0.1-0.1,0.1-0.2,0.1l0,0c-0.1,0-0.2,0-0.2-0.1c-1.4-1.3-1.9-2.3-2.2-4.2C15.1,20.9,15.2,20.7,15.3,20.7z M37.8,33.7
				c-0.2,1.8-1.2,3.1-2,3.1c-0.4,0-0.7-0.2-1.1,0c-0.3,0.1-0.5,0.4-0.5,0.7c-1.5,6-5.3,9.5-10,9.5c-4.6,0-8.4-3.6-9.9-9.5
				c-0.1-0.3-0.3-0.5-0.6-0.7c-0.3-0.1-0.6,0-1.1,0c-0.8,0.1-1.8-1.2-2-3.1c-0.2-1.9,0.5-3.5,1.2-3.6c0.1,0.4,0.5,0.7,1,0.7l0,0
				c0.5,0,0.9-0.4,1-0.8c0.2-1,0.5-2,0.9-3c1.8,1.3,5,3,9.8,3c1.9,0,4-0.3,6.1-0.8c0.1,0,0.2-0.1,0.2-0.3c0-0.1-0.1-0.2-0.2-0.3
				c0,0-2.4-0.8-3.6-2.7c3-0.6,7.2,1.9,7.5,4.1c0.1,0.5,0.5,0.8,1.1,0.8c0.4,0,0.8-0.3,0.9-0.7C37.4,30.3,38,31.8,37.8,33.7z"/>
			<circle cx="19.4" cy="32.9" r="1.6"/>
			<circle cx="29.2" cy="32.9" r="1.6"/>
			<path d="M24.3,40.8c-2.5,0-3.5-0.9-3.5,0.3c0,1.1,1.6,2.2,3.5,2.2s3.5-1.1,3.5-2.2C27.8,39.9,27,40.8,24.3,40.8z"/>
		</g>
		<path class="st3" d="M61.3,28c-0.5-4.8-3.3-8.9-7.3-11.2c1.2,0,2,0.1,2,0.1c0.1,0,0.3-0.1,0.3-0.2s0-0.3-0.1-0.3
			c-2.7-1.6-5.5-2.5-8.4-2.5c-3,0-5.1,0.9-5.5,1.1c-0.3,0-0.6,0-0.9,0c-4.9,0-7.3,3.7-7.4,3.9c0,0.1,0,0.2,0,0.3
			c0.1,0.1,0.3,0.1,0.3,0.1c0.7-0.3,1.5-0.5,2.1-0.7C33.8,21,32,24.3,31.6,28c-1.4,0.9-2.3,3-2,5.5c0.4,2.9,2.2,5,4.3,5
			c2.1,6.4,6.7,10.3,12.5,10.3S56.9,45,58.9,38.5l0,0c2.1,0,3.9-2.1,4.2-5c0.2-1.4,0-2.7-0.6-3.8C62.3,28.9,61.8,28.4,61.3,28z
			 M61.3,33.2c-0.2,2-1.4,3.3-2.3,3.2c-0.4-0.1-0.6-0.3-1.1,0c-0.3,0.1-0.5,0.4-0.5,0.6c-1.7,6.1-5.7,9.7-10.9,9.7
			c-5.1,0-9.2-3.6-10.9-9.7c-0.1-0.3-0.3-0.5-0.5-0.6c-0.5-0.2-0.7,0-1.1,0c-0.9,0.1-2.1-1.2-2.3-3.2c-0.3-2,0.6-3.6,1.5-3.7
			c0.2,0,0.4,0,0.6,0.1c0.3,0.1,0.6,0,0.9,0c1.3-0.2,4.3-0.8,6.8-4.1c1.7,1.3,6.3,4.2,14,4.2c0.3,0,0.7,0,1,0c0.1,0,0.3-0.1,0.3-0.2
			s0-0.3-0.2-0.3c0,0-1.3-0.5-2.8-1.5c1.2,0,2.4-0.1,3.6-0.3c0.2,0.5,0.3,1,0.4,1.5c0.1,0.3,0.3,0.6,0.5,0.7c0.3,0.1,0.6,0.1,0.9,0
			c0.2-0.1,0.4-0.1,0.6-0.1c0.6,0.1,0.9,0.7,1.1,1C61.3,31.2,61.4,32.2,61.3,33.2z"/>
	</g>
	<g id="Layer_15_1_" class="st0">
		<g class="st3">
			<path class="st10" d="M16.6,25.9V61c0,1.7,1.4,3.1,3.1,3.1s3.1-1.4,3.1-3.1V41.1H24V61c0,1.7,1.4,3.1,3.1,3.1s3.1-1.4,3.1-3.1
				V25.9c1.1,2.4,2.1,6.1,1.6,15C31.7,42,32.6,43,33.7,43h0.1c1.1,0,2-0.8,2-1.9c0.6-10.7-0.7-16.7-4-19.8c-1.4-1.3-2.8-1.6-3.5-1.6
				h-0.1h-9.8h-0.1c-0.7,0-2.1,0.2-3.5,1.6c-3.3,3.1-4.6,9.1-4,19.8c0.1,1.1,1,1.9,2,1.9h0.1c1.1-0.1,2-1,1.9-2.1
				C14.5,32.1,15.5,28.3,16.6,25.9z"/>
			<circle class="st10" cx="23.5" cy="12.7" r="5.7"/>
		</g>
		<g class="st3">
			<path class="st11" d="M38.2,62c0,1.2,1,2.2,2.2,2.2s2.2-1,2.2-2.2v-9.9c-1.7,0-3.1-0.2-4.4-0.4V62z"/>
			<path class="st11" d="M43.3,62c0,1.2,1,2.2,2.2,2.2s2.2-1,2.2-2.2V51.7c-1.2,0.2-2.7,0.4-4.4,0.4V62z"/>
			<path class="st11" d="M32.4,44.7c0.8,0.1,1.5-0.4,1.6-1.2c0.7-5.4,1.1-8.8,2.3-10.9c0.3-0.5,0.6-1,1-1.4l-3.7,18.4
				c0,0,3.3,2,9.4,2s9.4-2,9.4-2l-3.7-18.4c0.3,0.4,0.6,0.9,1,1.4c1.2,2.1,1.6,5.5,2.3,10.9c0.1,0.7,0.7,1.2,1.4,1.2
				c0.1,0-0.8,0-0.7,0c0.8-0.1,2.2-0.8,2.1-1.6c-1.4-10.6-3.9-14.5-6.2-16c-0.9-0.6-1.7-0.8-2-0.8c-0.4-0.1-2-0.5-3.6-0.5
				s-3.2,0.4-3.6,0.5c-0.3,0.1-1.1,0.2-2,0.8c-2.3,1.5-4.8,5.4-6.2,16C31.1,43.9,31.7,44.6,32.4,44.7z"/>
			<circle class="st11" cx="43" cy="20.2" r="4.7"/>
		</g>
	</g>
	<g id="Layer_16_1_" class="st0">
		<path class="st9" d="M49,54.9c-0.2,1.9-1,4-1,4H25.8H3.6c0,0-0.8-2.1-0.9-4c-0.4-3.6,2-5.3,5.3-6.6c3.8-1.6,8.9-4.8,11.3-5.7
			l0.4-2.9c-1.4-1.8-1.6-3.2-2.2-5.8c-0.5-0.3-0.9-0.8-1-1.4l-0.8-4.6c0-0.7,0.3-1.3,0.8-1.6c0-6.8,2.6-11.2,9.6-11.2
			s9.6,4.4,9.6,11.2c0.5,0.3,0.8,0.9,0.8,1.6l-0.8,4.6c-0.1,0.6-0.5,1.1-1,1.4c-0.7,2.6-0.8,4.1-2.2,5.8l0.4,2.9
			c2.4,0.9,7.5,3.9,11.3,5.5C47,49.5,49.3,51.3,49,54.9z M63.3,50.2c-3.9-2.2-8.8-4.1-9.6-5.6c0.7-1.7,4-0.4,6.2-1.6
			c0.4-0.2,0.4-0.5,0.1-1c-1.2-2-2.9-5-2.9-11.6c0-6.7-3.3-11.7-9.3-11.7s-9.3,5.1-9.3,11.7c0,6.1-1.5,7.6-2.9,10.3
			c-0.2,0.3-0.2,0.6-0.2,0.8c0.7,0.3,7.6,3.8,9.3,4.6c1.8,0.8,7.1,3,6.5,9.1c-0.1,1.4-0.6,2.9-0.8,3.8h16c0,0,0.9-2.2,1-4.2
			C67.5,52.6,66.5,52,63.3,50.2z"/>
	</g>
	<g id="Layer_17_1_" class="st0">
		<path class="st9" d="M67.6,44.5C67.4,43,65,41.8,62,41.6c-0.2,0-0.5-0.1-0.7-0.1c1.6-0.8,2.5-2.5,2.1-3.9
			c-0.9-3.9-1.8-7.8-2.8-11.7c0.1-7.1-5.2-11.6-10.9-11.3c-5.7-0.3-11,4.2-10.9,11.3c-0.9,3.9-1.8,7.8-2.8,11.7
			c-0.4,1.5,0.5,3.1,2.1,3.9c-0.2,0-0.5,0.1-0.7,0.1c-3,0.2-5.5,1.4-5.6,2.9l-1.4,13.2c5.8,2,12.4,2.1,19.3,2.1s13.5-0.2,19.3-2.1
			L67.6,44.5z M41.5,29.4c-0.2-0.9-0.3-1.7-0.2-2.5l2.5-0.8l1.6-4.9c0,0,1.5,4.5,3,5l-0.7-2.8c0,0,1.6,2.4,3,3c2.1,0.9,6.1,1,7.3,1
			c0,0.7-0.1,1.3-0.2,2C56.5,36,53.2,39,49.6,39C46.2,39.1,42.9,36,41.5,29.4z M49.7,49.9c-5,0-9.1-3.5-9.1-7.8c0-0.1,0-0.3,0-0.4
			c1-0.2,2-0.3,3-0.4c0.4,0.9,1,1.7,1.8,2.4c-0.3-0.9-0.5-1.9-0.7-2.9c0-0.2,0-0.4-0.1-0.6c0-0.3,0-0.5,0-0.8c1.3,1,2.8,1.6,4.3,1.7
			c0.2,0,0.5,0,0.7,0s0.5,0,0.7,0c1.5-0.1,3-0.7,4.3-1.7c0,0.3,0,0.5,0,0.8c0,0.2,0,0.4-0.1,0.6c-0.1,1-0.3,2-0.7,2.9
			c0.8-0.6,1.4-1.5,1.8-2.4c1,0.1,2,0.3,3,0.5c0,0.1,0,0.3,0,0.4C58.8,46.4,54.7,49.9,49.7,49.9z"/>
		<g class="st3">
			<path class="st12" d="M44.2,47.3c-0.2-1.7-3-3.1-6.5-3.4c-1.9-0.3-3.7-0.6-5.6-0.8l0.1,0.1l-8.6,9.3L15,43.2l0.1-0.1
				c-1.9,0.2-3.8,0.5-5.6,0.8C6,44.1,3.2,45.5,3,47.3L1.3,62.5C8,64.8,15.6,65,23.6,65s15.6-0.2,22.3-2.5L44.2,47.3z"/>
			<path class="st7" d="M14.1,34.4c0.1,0,0.3-0.2,0.3-0.3c2.3,5.1,5.6,7.5,9.1,7.5s6.9-2.4,9.1-7.5c0.1,0.2,0.2,0.3,0.3,0.3
				c0.6,0.2,1.5-1,2.1-3.2c0.7-2.3,0.6-4.5-0.3-4.7C36,16.9,30,10.6,23.4,11c-6.6-0.4-12.6,5.9-11.3,15.5c-0.8,0.3-0.9,2.5-0.3,4.7
				C12.6,33.4,13.5,34.6,14.1,34.4z M32.2,27c0,0.5-0.2,1-0.5,1.4c-0.5,0.5-1.2,0.8-1.9,0.9h-1.3c-0.7,0-1.4-0.3-1.9-0.8
				C26.2,28.1,26,27.6,26,27v-0.7l0,0c2-0.6,4.1-0.5,6.1,0.1l0,0L32.2,27z M25.3,25l-0.4,0.1l-0.1,0.4c0,0.2-0.1,0.3-0.1,0.5h-2.4
				c0-0.2,0-0.3-0.1-0.4l-0.1-0.4l-0.4-0.1c-2.5-0.9-5.3-0.9-7.7-0.1l-0.2,0.1c0-0.3,0-0.7,0-1c0.3-0.1,0.7-0.5,0.8-1.7
				c0.1-1,0-2.1,0.1-3.1c0.9-0.8,2.4-2,4.1-1.9c0.9,0.5,1.7,0.6,2.5,1.1c0.7,0.4,3.5,0.4,4.2,0c0.8-0.5,1.6-0.6,2.5-1.1
				c1.7,0,3.2,1.1,4.1,1.9c0.1,1,0,2.1,0.1,3.1c0.2,1.2,0.5,1.6,0.8,1.7c0,0.4,0,0.7-0.1,1.1l0.1-0.1C30.5,24.2,27.8,24.2,25.3,25z
				 M21,27c0,0.5-0.2,1-0.5,1.4c-0.5,0.5-1.2,0.8-1.9,0.9h-1.3c-0.7,0-1.4-0.3-1.8-0.8c-0.4-0.4-0.6-0.9-0.6-1.5v-0.7l0,0
				c2-0.6,4.1-0.5,6.1,0.1l0,0V27z M23.6,39.2c-3.6,0-6.9-3-8.8-9.5c0.7,0.6,1.6,0.9,2.5,0.9l0,0h1.4c1.1,0,2.2-0.5,2.9-1.3
				c0.4-0.5,0.7-1.1,0.8-1.7h2.4c0.1,0.7,0.4,1.3,0.9,1.8c0.7,0.8,1.7,1.2,2.8,1.2h1.4c0.9,0,1.8-0.4,2.5-0.9
				C30.5,36.1,27.2,39.2,23.6,39.2z"/>
		</g>
	</g>
	<g id="Layer_18_1_" class="st0">
		
			<image style="display:inline;overflow:visible;enable-background:new    ;" width="204" height="204" xlink:href="473C02A478099EA8.jpg"  transform="matrix(1 0 0 1 -64 -44)">
		</image>
	</g>
	<g id="Layer_19_1_" class="st0">
		<g id="mGYU4W.tif_1_" class="st3">
			
				<image style="overflow:visible;enable-background:new    ;" width="197" height="191" id="Layer_1_6_" xlink:href="473C02A478099EAB.png"  transform="matrix(0.2917 0 0 0.293 6.8476 7.7732)">
			</image>
		</g>
	</g>
	<g id="Layer_20_1_" class="st0">
		<g id="Skuilv.tif_1_" class="st3">
			
				<image style="overflow:visible;enable-background:new    ;" width="194" height="188" id="Layer_1_5_" xlink:href="473C02A478099EA6.png"  transform="matrix(0.3003 0 0 0.3018 7.25 8.2669)">
			</image>
		</g>
	</g>
	<g>
		<path class="st13" d="M44.9,26.5c0.2,0.5,0.3,0.7,0.3,0.7l0.7-1c0,0,0-2,0.1-3.3l-1.2,1.3C44.8,25,44.8,25.8,44.9,26.5z"/>
		<path class="st13" d="M38.8,66.6h28.4c-0.9-5.3-1.9-10.1-2.6-12.5c-0.5-1.7-1-3.1-1.5-3.6c-1.4-1.4-5.7-2.7-10.1-4
			c-4.8-1.4-9.7-2.9-10.5-4.4c-0.6-1.1-0.7-3.2,0.2-5.3c0.1,0,0.2,0,0.4-0.1c0.1,0,0.2,0,0.4-0.1c0.1-0.1,0.4-0.1,0.7-0.6
			c0-0.1,0.1-0.1,0.1-0.1c0.1-0.1,0.2-0.3,0.2-0.4c0.1-0.2,0.3-0.4,0.4-0.6c0.3-0.5,1.6-2.9,2.1-5.9c1.8-1.7,2.6-3.8,2.6-5.8
			c0-0.5-0.1-1-0.1-1.5c0-0.2-0.1-0.4-0.2-0.6l0.1-0.7c0.1-0.3,0.1-0.7,0.1-1.1L46.9,22c0.1,0.2,0.3,0.5,0.4,0.9
			c0.1,0.3,0.1,0.6,0.1,0.9c0,1.4-0.6,2.8-1.9,4.2L45,28.3l-0.1,0.1l-0.3,0.4c-0.4,3.2-1.3,5.6-3.2,7.5c-3.8,3.8-4.1,3.6-6.4,3.7
			c-1.8,0-2.4,0.1-4.2-1.6l-1.4,1.4c0.7,0.6,1.3,1,1.9,1.4c1.3,0.7,2.5,0.7,3.5,0.7h0.8c0.9,0,1.9-0.1,2.9-0.7
			c0.8-0.4,1.6-1,2.5-1.9c-0.2,1.3,0,2.8,0.4,3.5c0.1,0.2,0.3,0.4,0.5,0.6c1,1.6,3.6,3.6,3.6,3.6c-2.5,2.6-7.4,3.3-10.5,3.3
			s-7.1-0.5-10.6-3.4c0,0,4-4,4.1-4.2c0.3-0.5,0.4-1.5,0.4-2.4l-1,1c-0.1,0.3-0.2,0.7-0.3,0.9c-0.3,0.6-1.1,1.1-2.2,1.6L3,66.6H38.8
			z"/>
	</g>
</g>
</svg>
