<?xml version="1.0" encoding="utf-8"?>
<!-- Generator: Adobe Illustrator 19.2.1, SVG Export Plug-In . SVG Version: 6.00 Build 0)  -->
<svg version="1.1" id="Layer_2" xmlns="http://www.w3.org/2000/svg" xmlns:xlink="http://www.w3.org/1999/xlink" x="0px" y="0px"
	 viewBox="0 0 70 70" style="enable-background:new 0 0 70 70;" xml:space="preserve">
<style type="text/css">
	.st0{fill:#1C4882;}
	.st1{clip-path:url(#SVGID_2_);fill:#0E6DAF;}
</style>
<title>apple</title>
<path class="st0" d="M48.3,1.3C26.8,2.9,34.9,17.8,34.9,17.8S50.8,22.6,48.3,1.3z M31.3,18.2c-1-2.3-2.4-7.2-0.2-11.9
	c-2-1.3-4.9-2.3-9.4-2.7C20,17.6,27.5,18.5,31.3,18.2L31.3,18.2z M58.6,25.2c-5.2-5.6-16.8-6.5-23.5-2.5c-6.7-4-18.4-3.1-23.5,2.5
	C-2.8,40.7,14.9,80,35,65.6C55.1,80,72.8,40.7,58.6,25.2L58.6,25.2z M19.6,34.2c-3.1,4.3-3,9.7-5,8.3s-3.2-7.5-0.2-11.9
	s9.3-5.2,11.3-3.8S22.7,29.9,19.6,34.2L19.6,34.2z"/>
<g>
	<g>
		<defs>
			<path id="SVGID_1_" d="M48.3,1.3C26.8,2.9,34.9,17.8,34.9,17.8S50.8,22.6,48.3,1.3z M31.3,18.2c-1-2.3-2.4-7.2-0.2-11.9
				c-2-1.3-4.9-2.3-9.4-2.7C20,17.6,27.5,18.5,31.3,18.2L31.3,18.2z M58.6,25.2c-5.2-5.6-16.8-6.5-23.5-2.5
				c-6.7-4-18.4-3.1-23.5,2.5C-2.8,40.7,14.9,80,35,65.6C55.1,80,72.8,40.7,58.6,25.2L58.6,25.2z M19.6,34.2c-3.1,4.3-3,9.7-5,8.3
				s-3.2-7.5-0.2-11.9s9.3-5.2,11.3-3.8S22.7,29.9,19.6,34.2L19.6,34.2z"/>
		</defs>
		<clipPath id="SVGID_2_">
			<use xlink:href="#SVGID_1_"  style="overflow:visible;"/>
		</clipPath>
		<polygon class="st1" points="3.3,66.3 75.7,-6.3 4.7,-7.3 		"/>
	</g>
</g>
</svg>
