<svg id="Layer_1" data-name="Layer 1" xmlns="http://www.w3.org/2000/svg" viewBox="0 0 66.8 66.9"><defs><style>.cls-1{fill:#1c4882;}.cls-2{fill:#1173b2;}</style></defs><title>sun</title><g id="Layer_15" data-name="Layer 15"><path class="cls-1" d="M34.6,18.8A16.3,16.3,0,1,0,50.9,35.1,16.3,16.3,0,0,0,34.6,18.8Zm0,28.5A12.2,12.2,0,1,1,46.8,35.1,12.25,12.25,0,0,1,34.6,47.3Z" transform="translate(-1.2 -1.6)"/><path class="cls-1" d="M34.6,55.2a2,2,0,0,0-2,2v9.3a2,2,0,0,0,4,0V57.2A2,2,0,0,0,34.6,55.2Z" transform="translate(-1.2 -1.6)"/><path class="cls-1" d="M66,33H56.7a2,2,0,1,0,0,4H66A2,2,0,0,0,66,33Z" transform="translate(-1.2 -1.6)"/><path class="cls-1" d="M34.6,14.9a2,2,0,0,0,2-2V3.6a2,2,0,1,0-4,0v9.3A1.89,1.89,0,0,0,34.6,14.9Z" transform="translate(-1.2 -1.6)"/><path class="cls-1" d="M14.4,35.1a2,2,0,0,0-2-2H3.2a2,2,0,0,0,0,4h9.3A2,2,0,0,0,14.4,35.1Z" transform="translate(-1.2 -1.6)"/><path class="cls-1" d="M47.4,53.2a2,2,0,1,0-3.5,2.1L47.2,61A2,2,0,0,0,49,62a1.93,1.93,0,0,0,1-.3,2,2,0,0,0,.7-2.8Z" transform="translate(-1.2 -1.6)"/><path class="cls-1" d="M53.8,26a1.93,1.93,0,0,0,1-.3l5.7-3.3a2,2,0,0,0-2.1-3.5l-5.7,3.3A2,2,0,0,0,52,25,2.23,2.23,0,0,0,53.8,26Z" transform="translate(-1.2 -1.6)"/><path class="cls-1" d="M21.7,16.9a2,2,0,0,0,1.8,1,1.93,1.93,0,0,0,1-.3,2,2,0,0,0,.7-2.8L21.9,9.1a2,2,0,0,0-3.5,2.1Z" transform="translate(-1.2 -1.6)"/><path class="cls-1" d="M14.4,44.4L8.7,47.7a2,2,0,0,0,1.1,3.8,1.93,1.93,0,0,0,1-.3l5.7-3.3a2,2,0,0,0,.7-2.8A2.1,2.1,0,0,0,14.4,44.4Z" transform="translate(-1.2 -1.6)"/><path class="cls-1" d="M60.5,47.7l-5.7-3.3a2,2,0,0,0-2.1,3.5l5.7,3.3a1.93,1.93,0,0,0,1,.3,2.23,2.23,0,0,0,1.8-1A2,2,0,0,0,60.5,47.7Z" transform="translate(-1.2 -1.6)"/><path class="cls-1" d="M44.6,17.6a1.93,1.93,0,0,0,1,.3,2.23,2.23,0,0,0,1.8-1l3.3-5.7a2,2,0,0,0-3.5-2.1l-3.3,5.7A2.08,2.08,0,0,0,44.6,17.6Z" transform="translate(-1.2 -1.6)"/><path class="cls-1" d="M8.6,22.4l5.7,3.3a1.93,1.93,0,0,0,1,.3,2.23,2.23,0,0,0,1.8-1,2.08,2.08,0,0,0-.7-2.8l-5.7-3.3a2.08,2.08,0,0,0-2.8.7A2,2,0,0,0,8.6,22.4Z" transform="translate(-1.2 -1.6)"/><path class="cls-1" d="M24.5,52.5a2.08,2.08,0,0,0-2.8.7L18.4,59a2.08,2.08,0,0,0,.7,2.8,1.93,1.93,0,0,0,1,.3,2.23,2.23,0,0,0,1.8-1l3.3-5.7A2.09,2.09,0,0,0,24.5,52.5Z" transform="translate(-1.2 -1.6)"/></g><g id="Layer_15-2" data-name="Layer 15"><path class="cls-2" d="M66,33H56.7a2,2,0,1,0,0,4H66A2,2,0,0,0,66,33Z" transform="translate(-1.2 -1.6)"/><path class="cls-2" d="M34.6,14.9a2,2,0,0,0,2-2V3.6a2,2,0,1,0-4,0v9.3A1.89,1.89,0,0,0,34.6,14.9Z" transform="translate(-1.2 -1.6)"/><path class="cls-2" d="M53.8,26a1.93,1.93,0,0,0,1-.3l5.7-3.3a2,2,0,0,0-2.1-3.5l-5.7,3.3A2,2,0,0,0,52,25,2.23,2.23,0,0,0,53.8,26Z" transform="translate(-1.2 -1.6)"/><path class="cls-2" d="M21.7,16.9a2,2,0,0,0,1.8,1,1.93,1.93,0,0,0,1-.3,2,2,0,0,0,.7-2.8L21.9,9.1a2,2,0,0,0-3.5,2.1Z" transform="translate(-1.2 -1.6)"/><path class="cls-2" d="M60.5,47.7l-5.7-3.3a2,2,0,0,0-2.1,3.5l5.7,3.3a1.93,1.93,0,0,0,1,.3,2.23,2.23,0,0,0,1.8-1A2,2,0,0,0,60.5,47.7Z" transform="translate(-1.2 -1.6)"/><path class="cls-2" d="M44.6,17.6a1.93,1.93,0,0,0,1,.3,2.23,2.23,0,0,0,1.8-1l3.3-5.7a2,2,0,0,0-3.5-2.1l-3.3,5.7A2.08,2.08,0,0,0,44.6,17.6Z" transform="translate(-1.2 -1.6)"/></g><path class="cls-2" d="M24.75,28A12.17,12.17,0,1,1,43,43.94l3.11,2.73A16.29,16.29,0,1,0,21.65,25.23Z" transform="translate(-1.2 -1.6)"/></svg>