<?xml version="1.0" encoding="utf-8"?>
<!-- Generator: Adobe Illustrator 19.2.1, SVG Export Plug-In . SVG Version: 6.00 Build 0)  -->
<svg version="1.1" xmlns="http://www.w3.org/2000/svg" xmlns:xlink="http://www.w3.org/1999/xlink" x="0px" y="0px"
	 viewBox="0 0 70 70" style="enable-background:new 0 0 70 70;" xml:space="preserve">
<style type="text/css">
	.st0{fill:#1C4882;}
	.st1{fill:#0E6DAF;}
</style>
<g id="Layer_1_copy">
	<title>violence</title>
	<path class="st0" d="M67.2,42l-11.5-8.5c-0.6-0.5-0.9-1.3-0.7-2l3.6-13.2c0.2-0.6,0.1-1.2-0.3-1.7c-0.4-0.5-1-0.7-1.6-0.6
		l-14.6,1.5c-0.8,0.1-1.5-0.3-1.8-1L33.6,2c-0.3-0.6-1-1-1.7-1c-0.7,0-1.4,0.5-1.8,1.1l-8.7,16c-0.4,0.8-1.4,1.3-2.3,1.1L7.2,16
		c-0.7-0.2-1.4,0-1.9,0.6c-0.5,0.5-0.7,1.3-0.5,2l3.1,11.5c0.1,0.3,0.4,0.6,0.8,0.5c0.4-0.1,0.6-0.4,0.6-0.8L9,22.2
		c0-0.3,0.1-0.6,0.4-0.9c0.2-0.2,0.6-0.3,0.9-0.2L21,24c0.9,0.2,1.8-0.2,2.3-1l7.3-13.4C30.7,9.2,31,9,31.4,9c0.4,0,0.7,0.2,0.8,0.5
		l5.7,12.1c0.3,0.7,1,1.1,1.8,1l12.1-1.2c0.3,0,0.6,0.1,0.8,0.3c0.2,0.2,0.2,0.6,0.2,0.9l-3,11c-0.2,0.7,0.1,1.5,0.7,2l9.7,7.2
		c0.3,0.2,0.4,0.6,0.3,0.9c-0.1,0.4-0.3,0.7-0.6,0.8l-11,5.4c-0.9,0.4-1.4,1.4-1.1,2.4L50.5,63c0.1,0.6-0.2,1.2-0.8,1.3
		c0,0-0.1,0-0.1,0l-8.1,0.9c-0.3,0-0.6,0.3-0.6,0.6c0,0.3,0.2,0.6,0.5,0.7l12,2.2c0.7,0.1,1.4-0.1,1.9-0.7c0.5-0.5,0.7-1.3,0.5-2
		l-3.2-11.8c-0.3-1,0.2-2,1.1-2.5l13.1-6.5c0.6-0.3,1.1-0.9,1.2-1.6C68,43.1,67.7,42.4,67.2,42z M47.9,48c1.5-1.8,2.1-4.1,1.8-6.4
		c-0.3-2.1-1.5-4-3.2-5.3c-0.4-2-1.5-3.8-3-5.2c-0.9-0.8-1.9-1.3-3-1.6c-1.2-2.3-3.6-3.7-6.1-3.9c-1.1-1.5-2.7-2.6-4.5-3.2
		c-1.6-0.6-3.4-0.3-4.8,0.7c-1.3,1.2-2.5,2.4-3.7,3.8c-0.4,0.4-0.8,0.9-1.1,1.2c-1.9,0.5-5.1,1.6-6,1.9l-1.4,1.2
		C11.4,33.6,9,39,8.7,39.8l-0.3,0.7l0.1,0.8c0.4,2.8,0.6,4.8,0.7,6v0.4c-0.4,0.6-1.5,2.1-4.4,5.6l1,0.8L8,56.2c0.9-1,1.7-2,2-2.4
		c2,1,4.1,1.7,6.2,2.1c-1.1-2.4-2-4.9-2.7-7.4l0,0l0-0.5c0-0.2-0.1-0.6-0.1-1.1c-0.1-1.2-0.3-3.2-0.7-5.9c0.6-1.4,2.3-5.2,3.5-7.2
		c1.4-0.5,5.1-1.7,6.5-2l5.2,2.2c-1.2,1.7-0.2,2.7,0.3,2.9s2.4,0.7,3.2,1c0.5-0.6,0.9-1.3,1.3-1.9l1.5,0.6c-0.7,2.1-1.7,3.4-3.2,4.1
		c-1.9,0.9-5.3,0.9-8.6-1.9l0.1-2c0-0.3-0.2-0.6-0.6-0.6c0,0,0,0,0,0c-0.3,0-0.6,0.2-0.6,0.6l-0.3,3c0.7,0.7,1.4,1.2,2.2,1.7
		c0.5,1.5,1.7,5,2.2,7.6c1.4-2.8,3.1-4.7,4.1-5.2c0.3,0.9,0.8,1.7,1.5,2.4c1.1,0.9,2.4,1.3,3.7,1.4l0,0c0.5,1,1.2,1.8,2,2.5
		c0.6,0.5,1.3,1,2,1.3c-2.9,2.8-4.8,4.4-5.5,4.5c-1.2,0.2-2.1,0.3-3,0.4c-0.8,0.1-1.5,0.2-2.4,0.3c-3,0.4-10,8.6-10.1,8.7l0,0
		l3.2,2.8c2.3-2.6,4.8-5,7.4-7.2c0.8-0.1,1.4-0.2,2.2-0.3c1-0.1,2.1-0.2,3.3-0.4C35.6,60,38.7,58.5,47.9,48z M24.3,29.9l0.2-0.2
		c1-1.2,2.1-2.3,3.2-3.3c0.3-0.1,0.7-0.1,1,0c1.3,0.4,2.3,1.3,2.8,2.5v0.1c-0.6,0.8-1.6,2.1-2.3,3C27.4,31.3,25.5,30.5,24.3,29.9z
		 M30.8,32.7c0.6-0.8,1.5-2,2.1-2.7l0.3-0.1c0.8-0.2,1.6-0.1,2.3,0.3c0.8,0.5,1.4,1.3,1.6,2.2l0.1,0.3c-0.4,0.5-1,1.3-1.6,2.1
		C35.3,34.6,33.6,33.9,30.8,32.7z M34.8,45.2c-2.5-0.3-2.8-1.6-3-2.9c1.8-0.9,3.2-2.5,3.8-4.5c0.4-0.5,2.3-2.9,3.2-4.2l0.3-0.1
		c0.7,0,1.3,0.3,1.8,0.7l0,0c0.8,0.7,1.4,1.7,1.6,2.8C41.3,39.7,36.8,44.1,34.8,45.2z M37.1,46.7c2.6-2,4.9-4.3,6.7-7
		c0.9,0.6,1.5,1.6,1.7,2.7c0.2,1-0.1,2.1-0.7,2.9c-1.4,1.6-2.8,3.1-4,4.4C39.9,49.6,37.9,48.3,37.1,46.7z"/>
</g>
<g id="Layer_1">
	<title>violence</title>
	<g>
		<path class="st1" d="M4.8,53.3l1,0.8L8,56.2c0.9-1,1.7-2,2-2.4c2,1,4.1,1.7,6.2,2.1c-1.1-2.4-2-4.9-2.7-7.4l0-0.5
			c0-0.2-0.1-0.6-0.1-1.1c-0.1-1.2-0.3-3.2-0.7-5.9c0.6-1.4,2.3-5.1,3.5-7.2c1.4-0.5,5.1-1.7,6.5-2l5.2,2.2
			c-1.2,1.7-0.2,2.7,0.3,2.9s2.4,0.7,3.2,1c0.5-0.6,0.9-1.3,1.3-1.9l1.1,0.4l1.6-1.8c-0.7-0.3-2.3-1-4.4-1.9c0.6-0.8,1.5-2,2.1-2.7
			l0.3-0.1c0.8-0.2,1.6-0.1,2.3,0.3c0.8,0.5,1.4,1.3,1.6,2.2l0,0l3-3.4c-1.3-2.1-3.5-3.4-5.9-3.5c-1.1-1.5-2.7-2.6-4.5-3.2
			C28.2,21.8,26.4,22,25,23c-1.3,1.2-2.5,2.4-3.7,3.8c-0.4,0.4-0.8,0.9-1.1,1.2c-1.9,0.5-5.1,1.6-6,1.9l-1.5,1.2
			C11.4,33.6,9,39,8.7,39.8l-0.3,0.7l0.1,0.8c0.4,2.8,0.6,4.8,0.7,6v0.4C8.8,48.3,7.7,49.8,4.8,53.3z M24.5,29.8
			c1-1.2,2.1-2.3,3.2-3.3c0.3-0.1,0.7-0.1,1,0c1.3,0.4,2.3,1.3,2.8,2.5v0.1c-0.6,0.8-1.6,2.1-2.3,3c-1.8-0.9-3.7-1.7-4.9-2.2
			L24.5,29.8z"/>
		<path class="st1" d="M7.8,30.1c0.1,0.3,0.4,0.6,0.8,0.5c0.4-0.1,0.6-0.4,0.6-0.8L9,22.2c0-0.3,0.1-0.6,0.4-0.8
			c0.2-0.2,0.6-0.3,0.9-0.2L21,24c0.9,0.2,1.8-0.2,2.3-1l7.3-13.4C30.7,9.2,31,9,31.4,9c0.4,0,0.7,0.2,0.8,0.5l5.7,12.1
			c0.3,0.7,1,1.1,1.8,1l6.8-0.7l4.8-5.5l-9.3,1c-0.8,0.1-1.5-0.3-1.8-1L33.6,2c-0.3-0.6-1-1-1.7-1c-0.7,0-1.4,0.5-1.8,1.1l-8.7,16
			c-0.4,0.8-1.4,1.3-2.3,1.1L7.2,16c-0.7-0.2-1.4,0-1.9,0.6c-0.5,0.5-0.7,1.3-0.5,2L7.8,30.1z"/>
		<path class="st1" d="M22.4,38.9l0.1-2c0-0.3-0.2-0.6-0.6-0.6c0,0,0,0,0,0c-0.3,0-0.6,0.2-0.6,0.6l-0.3,3c0.7,0.7,1.4,1.2,2.2,1.7
			c0.3,1,1,3,1.5,4.9l4.7-5.3C27.6,41.5,25,41.1,22.4,38.9z"/>
	</g>
</g>
</svg>
